<?xml version="1.0" encoding="iso-8859-1"?>
<!-- Generator: Adobe Illustrator 19.0.0, SVG Export Plug-In . SVG Version: 6.00 Build 0)  -->
<svg xmlns="http://www.w3.org/2000/svg" xmlns:xlink="http://www.w3.org/1999/xlink" version="1.1" id="Layer_1" x="0px" y="0px" viewBox="0 0 496 496" style="enable-background:new 0 0 496 496;" xml:space="preserve">
<g>
	<rect x="280" y="192" style="fill:#333333;" width="16" height="24"/>
	<path style="fill:#333333;" d="M168,56c-23.736,0-43.448,17.336-47.28,40H88H50.08C22.472,96,0,118.472,0,146.08V212   c0,15.44,12.56,28,28,28c4.312,0,8.352-1.064,12-2.808V356c0,15.44,12.56,28,28,28c7.84,0,14.912-3.256,20-8.464   c5.088,5.208,12.16,8.464,20,8.464c4.312,0,8.352-1.064,12-2.808V412c0,15.44,12.56,28,28,28c7.84,0,14.912-3.256,20-8.464   c5.088,5.208,12.16,8.464,20,8.464c15.44,0,28-12.56,28-28h-16c0,6.616-5.384,12-12,12s-12-5.384-12-12V304h-16v108   c0,6.616-5.384,12-12,12s-12-5.384-12-12V268v-4v-72h-16v72v4c0,6.616-5.384,12-12,12s-12-5.384-12-12v-20v-45.92   c0-18.792,15.288-34.08,34.08-34.08h75.84v-16H168h-32v-12.32c8.504,7.632,19.696,12.32,32,12.32c26.472,0,48-21.528,48-48   S194.472,56,168,56z M108,296c4.312,0,8.352-1.064,12-2.808V356c0,6.616-5.384,12-12,12s-12-5.384-12-12v-62.808   C99.648,294.936,103.688,296,108,296z M80,202.08V248v20v88c0,6.616-5.384,12-12,12s-12-5.384-12-12V212v-4v-72H40v72v4   c0,6.616-5.384,12-12,12s-12-5.384-12-12v-65.92C16,127.288,31.288,112,50.08,112h70.648c1.544,9.136,5.664,17.384,11.6,24H120   v17.016C97.2,157.696,80,177.92,80,202.08z M168,136c-17.648,0-32-14.352-32-32s14.352-32,32-32s32,14.352,32,32   S185.648,136,168,136z"/>
	<rect x="200" y="192" style="fill:#333333;" width="16" height="24"/>
	<path style="fill:#333333;" d="M136,48c0-26.472-21.528-48-48-48S40,21.528,40,48s21.528,48,48,48S136,74.472,136,48z M88,80   c-17.648,0-32-14.352-32-32s14.352-32,32-32s32,14.352,32,32S105.648,80,88,80z"/>
	<path style="fill:#333333;" d="M456,48c0-26.472-21.528-48-48-48s-48,21.528-48,48s21.528,48,48,48S456,74.472,456,48z M408,80   c-17.648,0-32-14.352-32-32s14.352-32,32-32s32,14.352,32,32S425.648,80,408,80z"/>
	<path style="fill:#333333;" d="M445.92,96H408h-32.72c-3.824-22.664-23.536-40-47.28-40c-26.472,0-48,21.528-48,48s21.528,48,48,48   c12.304,0,23.496-4.688,32-12.32V152h-32h-37.92v16h75.84c18.792,0,34.08,15.288,34.08,34.08V248v20c0,6.616-5.384,12-12,12   s-12-5.384-12-12v-4v-72h-16v72v4v144c0,6.616-5.384,12-12,12s-12-5.384-12-12V304h-16v108c0,6.616-5.384,12-12,12s-12-5.384-12-12   h-16c0,15.44,12.56,28,28,28c7.84,0,14.912-3.256,20-8.464c5.088,5.208,12.16,8.464,20,8.464c15.44,0,28-12.56,28-28v-30.808   c3.648,1.744,7.688,2.808,12,2.808c7.84,0,14.912-3.256,20-8.464c5.088,5.208,12.16,8.464,20,8.464c15.44,0,28-12.56,28-28V237.192   c3.648,1.744,7.688,2.808,12,2.808c15.44,0,28-12.56,28-28v-65.92C496,118.472,473.528,96,445.92,96z M328,136   c-17.648,0-32-14.352-32-32s14.352-32,32-32s32,14.352,32,32S345.648,136,328,136z M388,368c-6.616,0-12-5.384-12-12v-62.808   c3.648,1.744,7.688,2.808,12,2.808s8.352-1.064,12-2.808V356C400,362.616,394.616,368,388,368z M480,212c0,6.616-5.384,12-12,12   s-12-5.384-12-12v-4v-72h-16v72v4v144c0,6.616-5.384,12-12,12s-12-5.384-12-12v-88v-20v-45.92c0-24.16-17.2-44.384-40-49.056V136   h-12.32c5.936-6.616,10.056-14.864,11.6-24h70.648c18.792,0,34.08,15.288,34.08,34.08V212H480z"/>
</g>
<g>
	<path style="fill:#F9BA48;" d="M296,160c0-26.472-21.528-48-48-48s-48,21.528-48,48s21.528,48,48,48S296,186.472,296,160z"/>
	<path style="fill:#F9BA48;" d="M285.92,208H248h-37.92c-27.608,0-50.08,22.472-50.08,50.08V324c0,15.44,12.56,28,28,28   c4.312,0,8.352-1.064,12-2.808V468c0,15.44,12.56,28,28,28c7.84,0,14.912-3.256,20-8.464c5.088,5.208,12.16,8.464,20,8.464   c15.44,0,28-12.56,28-28V349.192c3.648,1.744,7.688,2.808,12,2.808c15.44,0,28-12.56,28-28v-65.92   C336,230.472,313.528,208,285.92,208z"/>
</g>
<g>
</g>
<g>
</g>
<g>
</g>
<g>
</g>
<g>
</g>
<g>
</g>
<g>
</g>
<g>
</g>
<g>
</g>
<g>
</g>
<g>
</g>
<g>
</g>
<g>
</g>
<g>
</g>
<g>
</g>
</svg>
