<?xml version="1.0" encoding="iso-8859-1"?>
<!-- Generator: Adobe Illustrator 19.0.0, SVG Export Plug-In . SVG Version: 6.00 Build 0)  -->
<svg xmlns="http://www.w3.org/2000/svg" xmlns:xlink="http://www.w3.org/1999/xlink" version="1.1" id="Layer_1" x="0px" y="0px" viewBox="0 0 496 496" style="enable-background:new 0 0 496 496;" xml:space="preserve">
<g>
	<path style="fill:#333333;" d="M416,224h-64v-30.032c-1.112-0.44-2.216-0.896-3.328-1.392l-21.24,21.24l-45.248-45.248l21.24-21.24   c-0.496-1.112-0.952-2.216-1.392-3.328H272V80h30.032c0.44-1.112,0.896-2.216,1.392-3.328l-21.24-21.24l45.248-45.248l21.24,21.24   c1.112-0.496,2.216-0.952,3.328-1.392V0h64v30.032c1.112,0.44,2.216,0.896,3.328,1.392l21.24-21.24l45.248,45.248l-21.24,21.24   c0.496,1.112,0.952,2.216,1.392,3.328H496v64h-30.032c-0.44,1.112-0.896,2.216-1.392,3.328l21.24,21.24l-45.248,45.248   l-21.24-21.24c-1.112,0.496-2.216,0.952-3.328,1.392V224z M368,208h32v-25.536l5.592-1.768c3.864-1.216,7.8-2.856,11.672-4.88   l5.208-2.72l18.096,18.104l22.624-22.624l-18.104-18.096l2.72-5.208c2.024-3.872,3.664-7.808,4.88-11.672l1.776-5.6H480V96h-25.536   l-1.768-5.592c-1.216-3.864-2.856-7.8-4.88-11.672l-2.72-5.208L463.2,55.432l-22.624-22.624L422.48,50.904l-5.208-2.72   c-3.872-2.024-7.808-3.664-11.672-4.88l-5.6-1.768V16h-32v25.536l-5.592,1.768c-3.864,1.216-7.8,2.856-11.672,4.88l-5.208,2.72   L327.432,32.8l-22.624,22.624l18.104,18.096l-2.72,5.208c-2.024,3.872-3.664,7.808-4.88,11.672l-1.776,5.6H288v32h25.536   l1.768,5.592c1.216,3.864,2.856,7.8,4.88,11.672l2.72,5.208L304.8,168.568l22.624,22.624l18.096-18.104l5.208,2.72   c3.872,2.024,7.808,3.664,11.672,4.88l5.6,1.776V208z"/>
	<path style="fill:#333333;" d="M416,496h-64v-30.032c-1.112-0.44-2.216-0.896-3.328-1.392l-21.24,21.24l-45.248-45.248l21.24-21.24   c-0.496-1.112-0.952-2.216-1.392-3.328H272v-64h30.032c0.44-1.112,0.896-2.216,1.392-3.328l-21.24-21.24l45.248-45.248l21.24,21.24   c1.112-0.496,2.216-0.952,3.328-1.392V272h64v30.032c1.112,0.44,2.216,0.896,3.328,1.392l21.24-21.24l45.248,45.248l-21.24,21.24   c0.496,1.112,0.952,2.216,1.392,3.328H496v64h-30.032c-0.44,1.112-0.896,2.216-1.392,3.328l21.24,21.24l-45.248,45.248   l-21.24-21.24c-1.112,0.496-2.216,0.952-3.328,1.392V496z M368,480h32v-25.536l5.592-1.768c3.864-1.216,7.8-2.856,11.672-4.88   l5.208-2.72l18.096,18.104l22.624-22.624l-18.104-18.096l2.72-5.208c2.024-3.872,3.664-7.808,4.88-11.672l1.776-5.6H480v-32   h-25.536l-1.768-5.592c-1.216-3.864-2.856-7.8-4.88-11.672l-2.72-5.208l18.104-18.096l-22.624-22.624l-18.096,18.104l-5.208-2.72   c-3.872-2.024-7.808-3.664-11.672-4.88l-5.6-1.776V288h-32v25.536l-5.592,1.768c-3.864,1.216-7.8,2.856-11.672,4.88l-5.208,2.72   L327.432,304.8l-22.624,22.624l18.104,18.096l-2.72,5.208c-2.024,3.872-3.664,7.808-4.88,11.672l-1.776,5.6H288v32h25.536   l1.768,5.592c1.216,3.864,2.856,7.8,4.88,11.672l2.72,5.208L304.8,440.568l22.624,22.624l18.096-18.104l5.208,2.72   c3.872,2.024,7.808,3.664,11.672,4.88l5.6,1.776V480z"/>
	<path style="fill:#333333;" d="M176,392h-64v-36.752c-7.344-2.192-14.44-5.136-21.192-8.8l-26,26l-45.256-45.256l26-26   c-3.664-6.76-6.6-13.848-8.8-21.192H0v-64h36.752c2.192-7.344,5.136-14.44,8.8-21.192l-26-26l45.256-45.256l26,26   c6.76-3.664,13.848-6.6,21.192-8.8V104h64v36.752c7.344,2.192,14.44,5.136,21.192,8.8l26-26l45.256,45.256l-26,26   c3.664,6.76,6.6,13.848,8.8,21.192H288v64h-36.752c-2.192,7.344-5.136,14.44-8.8,21.192l26,26l-45.256,45.256l-26-26   c-6.76,3.664-13.848,6.6-21.192,8.8V392z M128,376h32v-33.216l6.16-1.456c9.936-2.36,19.408-6.288,28.152-11.68l5.384-3.328   l23.504,23.504l22.632-22.632l-23.504-23.504l3.328-5.384c5.392-8.744,9.32-18.208,11.68-28.152l1.448-6.152H272v-32h-33.216   l-1.456-6.16c-2.36-9.936-6.288-19.408-11.68-28.152l-3.328-5.384l23.504-23.504l-22.632-22.632l-23.504,23.504l-5.384-3.328   c-8.744-5.392-18.208-9.32-28.152-11.68L160,153.216V120h-32v33.216l-6.16,1.456c-9.936,2.36-19.408,6.288-28.152,11.68   l-5.384,3.328L64.8,146.176l-22.632,22.632l23.504,23.504l-3.328,5.384c-5.392,8.744-9.32,18.208-11.68,28.152L49.216,232H16v32   h33.216l1.456,6.16c2.36,9.936,6.288,19.408,11.68,28.152l3.328,5.384L42.176,327.2l22.632,22.632l23.504-23.504l5.384,3.328   c8.744,5.392,18.208,9.32,28.152,11.68l6.152,1.448V376z"/>
</g>
<g>
	<path style="fill:#F9BA48;" d="M384,112c-17.648,0-32-14.352-32-32s14.352-32,32-32s32,14.352,32,32S401.648,112,384,112z"/>
	<path style="fill:#F9BA48;" d="M424,168h-80v-16c0-22.056,17.944-40,40-40s40,17.944,40,40V168z"/>
	<path style="fill:#F9BA48;" d="M384,384c-17.648,0-32-14.352-32-32s14.352-32,32-32s32,14.352,32,32S401.648,384,384,384z"/>
	<path style="fill:#F9BA48;" d="M424,440h-80v-16c0-22.056,17.944-40,40-40s40,17.944,40,40V440z"/>
	<path style="fill:#F9BA48;" d="M144,248c-17.648,0-32-14.352-32-32s14.352-32,32-32s32,14.352,32,32S161.648,248,144,248z"/>
	<path style="fill:#F9BA48;" d="M184,304h-80v-16c0-22.056,17.944-40,40-40s40,17.944,40,40V304z"/>
</g>
<g>
	<circle style="fill:#333333;" cx="80" cy="248" r="8"/>
	<circle style="fill:#333333;" cx="208" cy="248" r="8"/>
</g>
<g>
</g>
<g>
</g>
<g>
</g>
<g>
</g>
<g>
</g>
<g>
</g>
<g>
</g>
<g>
</g>
<g>
</g>
<g>
</g>
<g>
</g>
<g>
</g>
<g>
</g>
<g>
</g>
<g>
</g>
</svg>
