<?xml version="1.0" encoding="iso-8859-1"?>
<!-- Generator: Adobe Illustrator 19.0.0, SVG Export Plug-In . SVG Version: 6.00 Build 0)  -->
<svg xmlns="http://www.w3.org/2000/svg" xmlns:xlink="http://www.w3.org/1999/xlink" version="1.1" id="Layer_1" x="0px" y="0px" viewBox="0 0 496 496" style="enable-background:new 0 0 496 496;" xml:space="preserve">
<g>
	<path style="fill:#333333;" d="M292,392H20V80h232V64H20V40c0-13.232,10.768-24,24-24h224c13.232,0,24,10.768,24,24v8h16v-8   c0-22.056-17.944-40-40-40H44C21.944,0,4,17.944,4,40v416c0,22.056,17.944,40,40,40h224c22.056,0,40-17.944,40-40V168h-16V392z    M268,480H44c-13.232,0-24-10.768-24-24v-48h272v48C292,469.232,281.232,480,268,480z"/>
	<rect x="148" y="32" style="fill:#333333;" width="64" height="16"/>
	<rect x="100" y="32" style="fill:#333333;" width="16" height="16"/>
</g>
<path style="fill:#F9BA48;" d="M428,48H292c-35.344,0-64,28.656-64,64c0,23.672,12.888,44.296,32,55.368V200l43.2-24H428  c35.344,0,64-28.656,64-64S463.344,48,428,48z M292,128c-8.84,0-16-7.16-16-16s7.16-16,16-16s16,7.16,16,16S300.84,128,292,128z   M364,128c-8.84,0-16-7.16-16-16s7.16-16,16-16s16,7.16,16,16S372.84,128,364,128z M436,128c-8.84,0-16-7.16-16-16s7.16-16,16-16  s16,7.16,16,16S444.84,128,436,128z"/>
<g>
	<path style="fill:#333333;" d="M156,416c-15.44,0-28,12.56-28,28s12.56,28,28,28s28-12.56,28-28S171.44,416,156,416z M156,456   c-6.616,0-12-5.384-12-12s5.384-12,12-12s12,5.384,12,12S162.616,456,156,456z"/>
	<path style="fill:#333333;" d="M204,184c0-26.472-21.528-48-48-48s-48,21.528-48,48s21.528,48,48,48S204,210.472,204,184z M156,216   c-17.648,0-32-14.352-32-32s14.352-32,32-32s32,14.352,32,32S173.648,216,156,216z"/>
	<path style="fill:#333333;" d="M92,296v40h128v-40c0-35.288-28.712-64-64-64S92,260.712,92,296z M156,248c26.472,0,48,21.528,48,48   v24h-96v-24C108,269.528,129.528,248,156,248z"/>
	<path style="fill:#333333;" d="M292,88c-13.232,0-24,10.768-24,24s10.768,24,24,24s24-10.768,24-24S305.232,88,292,88z M292,120   c-4.416,0-8-3.584-8-8s3.584-8,8-8s8,3.584,8,8S296.416,120,292,120z"/>
	<path style="fill:#333333;" d="M364,88c-13.232,0-24,10.768-24,24s10.768,24,24,24s24-10.768,24-24S377.232,88,364,88z M364,120   c-4.416,0-8-3.584-8-8s3.584-8,8-8s8,3.584,8,8S368.416,120,364,120z"/>
	<path style="fill:#333333;" d="M436,88c-13.232,0-24,10.768-24,24s10.768,24,24,24s24-10.768,24-24S449.232,88,436,88z M436,120   c-4.416,0-8-3.584-8-8s3.584-8,8-8s8,3.584,8,8S440.416,120,436,120z"/>
</g>
<g>
</g>
<g>
</g>
<g>
</g>
<g>
</g>
<g>
</g>
<g>
</g>
<g>
</g>
<g>
</g>
<g>
</g>
<g>
</g>
<g>
</g>
<g>
</g>
<g>
</g>
<g>
</g>
<g>
</g>
</svg>
