<?xml version="1.0" encoding="iso-8859-1"?>
<!-- Generator: Adobe Illustrator 19.0.0, SVG Export Plug-In . SVG Version: 6.00 Build 0)  -->
<svg xmlns="http://www.w3.org/2000/svg" xmlns:xlink="http://www.w3.org/1999/xlink" version="1.1" id="Layer_1" x="0px" y="0px" viewBox="0 0 509.888 509.888" style="enable-background:new 0 0 509.888 509.888;" xml:space="preserve">
<g>
	<path style="fill:#333333;" d="M391.208,361.732l-45-7.824l-34.792-26.192c18.56-13.568,32.544-32.264,40.384-53.656   c19.448-0.52,35.144-18.176,35.144-39.904c0-11.776-4.688-22.272-12-29.592v-10.408c0-45.968-26.912-88.48-68.56-108.304   l-6.872,14.456c36.104,17.176,59.432,54.016,59.432,93.848h-8c-33.184,0-50.728-14.024-50.856-14.136l-4.84-4.624l-5.152,4.408   c-0.856,0.584-22.008,14.352-131.152,14.352h-8c0-39.832,23.328-76.672,59.44-93.848l-6.872-14.456   c-41.656,19.824-68.568,62.336-68.568,108.304v15.168c-4.928,6.848-8,15.408-8,24.832c0,20.144,13.52,36.696,30.984,39.44   c7.704,21.32,21.504,39.96,39.84,53.584l-34.176,26.744l-44.928,7.808c-8.416,1.464-16.392,4.28-23.728,8.168v-31.744h30.944   l-62.936-94.424L0,338.156h30.944v168h6.24h9.76H209.36h38.656h13.856h38.656h172.176l-16.144-80.704   C450.08,393.012,423.808,367.404,391.208,361.732z M255.632,490.156h-1.376L216.328,338.46c2.04,0.992,4.08,1.976,6.192,2.856   c10.304,4.296,21.36,6.44,32.424,6.44c11.056,0,22.12-2.152,32.424-6.448c2.112-0.88,4.152-1.864,6.192-2.856L255.632,490.156z    M356.576,257.068c1.512-7.512,2.368-15.24,2.368-23.12v-21.76c7.056,3.712,12,12.152,12,21.968   C370.944,245.028,364.856,254.124,356.576,257.068z M142.944,234.156c0-7.808,3.168-14.696,8-19.08v18.872   c0,7.088,0.712,14.04,1.936,20.832C146.968,250.604,142.944,242.972,142.944,234.156z M166.944,233.948v-23.816   c83.88-0.528,115.864-9.344,127.496-14.584c7.464,4.68,23.784,12.864,48.504,14.368v24.032c0,40.624-24.232,76.976-61.736,92.6   c-16.688,6.952-35.84,6.952-52.528,0C191.176,310.924,166.944,274.572,166.944,233.948z M46.944,457.364V322.156H29.888   l33.056-49.576L96,322.156H78.944v58.92c-12.864,11.464-22.128,26.912-25.616,44.376L46.944,457.364z M56.704,490.156l12.312-61.56   c5.2-26.016,26.264-46.544,52.4-51.096l34.448-5.992l-7.752,27.928L168,405.788l-19.632,19.632l48.904,64.736H56.704z    M169.52,426.892l28.368-28.368l-30.248-9.648l6.32-22.736l27.44-21.48l36.376,145.496h-20.448L169.52,426.892z M272.112,490.156   l36.192-144.752l27.648,20.816l6.296,22.656L312,398.524l28.368,28.368l-47.808,63.264H272.112z M312.616,490.156l48.904-64.736   l-19.632-19.632l19.888-6.352l-7.752-27.928l34.44,5.992c26.144,4.544,47.2,25.08,52.408,51.096l12.312,61.56H312.616z"/>
	<path style="fill:#333333;" d="M446.944,3.732L384,98.156h30.944v216h64v-216h30.944L446.944,3.732z M462.944,82.156v216h-32v-216   h-17.056l33.056-49.576L480,82.156H462.944z"/>
</g>
<path style="fill:#F9BA48;" d="M334.944,114.156v-32h-18.096c-1.512-5.856-3.816-11.376-6.816-16.464L322.824,52.9L300.2,30.276  l-12.792,12.792c-5.088-3-10.608-5.304-16.464-6.816V18.156h-32v18.096c-5.856,1.512-11.376,3.816-16.464,6.816l-12.792-12.792  L187.064,52.9l12.792,12.792c-3,5.088-5.304,10.608-6.816,16.464h-18.096v32h18.096c1.512,5.856,3.816,11.376,6.816,16.464  l-12.792,12.792l22.624,22.624l12.792-12.792c5.08,3,10.608,5.304,16.464,6.816v18.096h32V160.06  c5.856-1.512,11.376-3.816,16.464-6.816l12.792,12.792l22.624-22.624l-12.792-12.792c3-5.08,5.304-10.608,6.816-16.464  L334.944,114.156L334.944,114.156z M254.944,130.156c-17.672,0-32-14.328-32-32s14.328-32,32-32s32,14.328,32,32  S272.616,130.156,254.944,130.156z"/>
<path style="fill:#333333;" d="M254.944,138.156c22.056,0,40-17.944,40-40s-17.944-40-40-40s-40,17.944-40,40  S232.888,138.156,254.944,138.156z M254.944,74.156c13.232,0,24,10.768,24,24s-10.768,24-24,24s-24-10.768-24-24  S241.712,74.156,254.944,74.156z"/>
<g>
</g>
<g>
</g>
<g>
</g>
<g>
</g>
<g>
</g>
<g>
</g>
<g>
</g>
<g>
</g>
<g>
</g>
<g>
</g>
<g>
</g>
<g>
</g>
<g>
</g>
<g>
</g>
<g>
</g>
</svg>
