<?xml version="1.0" encoding="iso-8859-1"?>
<!-- Generator: Adobe Illustrator 19.0.0, SVG Export Plug-In . SVG Version: 6.00 Build 0)  -->
<svg xmlns="http://www.w3.org/2000/svg" xmlns:xlink="http://www.w3.org/1999/xlink" version="1.1" id="Layer_1" x="0px" y="0px" viewBox="0 0 496.192 496.192" style="enable-background:new 0 0 496.192 496.192;" xml:space="preserve">
<path style="fill:#F9BA48;" d="M248.006,128.088c-35.288,0-64-28.712-64-64s28.712-64,64-64s64,28.712,64,64  S283.294,128.088,248.006,128.088z"/>
<g>
	<path style="fill:#333333;" d="M463.182,132.48c-42.632-44.576-113.096-48.512-160.352-8.992l-54.744,45.768l-54.744-45.768   C146.054,83.96,75.622,87.912,32.99,132.48c-22.68,23.712-34.632,56.16-32.808,89.024c1.832,32.832,17.28,63.728,42.416,84.744   l24.152,20.184c-5.016,11.72-4.128,25.488,3.704,35.784c5.968,7.84,14.6,12.768,24.304,13.848c2.344,0.256,4.672,0.304,6.976,0.104   c-0.192,1.632-0.288,3.288-0.264,4.96c0.168,10.84,5.176,20.944,13.768,27.704c7.112,5.584,15.976,7.928,24.792,7.128   c-0.224,1.704-0.32,3.432-0.296,5.176c0.168,10.84,5.168,20.928,13.76,27.688c7.112,5.584,15.968,7.992,24.792,7.128   c-0.216,1.704-0.32,3.44-0.296,5.184c0.168,10.84,5.176,20.936,13.768,27.688c6.184,4.864,13.736,7.28,21.376,7.28   c8.384,0,16.864-2.904,23.76-8.672l3.08-2.576c6.72,6.088,15.232,9.152,23.736,9.144c8.808,0,17.592-3.24,24.4-9.712   c7.144-6.8,11.176-16.36,11.104-26.232c-0.008-0.888-0.224-1.744-0.296-2.624c1.624,0.224,3.248,0.44,4.888,0.44   c8.8,0,17.584-3.232,24.392-9.704c7.136-6.792,11.176-16.344,11.104-26.224c-0.008-0.888-0.224-1.752-0.296-2.632   c1.624,0.224,3.256,0.44,4.896,0.44c8.792,0,17.584-3.248,24.384-9.72c7.144-6.784,11.184-16.336,11.112-26.216   c-0.008-0.896-0.224-1.752-0.296-2.64c1.624,0.224,3.248,0.44,4.888,0.44c8.8,0,17.592-3.24,24.4-9.712   c7.144-6.8,11.176-16.36,11.104-26.232c-0.024-2.624-0.376-5.208-0.96-7.728c0.08-0.064,0.176-0.08,0.256-0.152l34.808-29.544   c25.136-21.016,40.584-51.904,42.416-84.744C497.814,188.632,485.862,156.192,463.182,132.48z M52.87,293.96   c-22.064-18.448-35.104-44.496-36.704-73.352c-1.608-28.872,8.48-56.248,28.392-77.072c36.832-38.512,97.688-41.936,138.52-7.776   l130.288,108.928c4.288,3.592,6.824,8.656,7.136,14.272c0.312,5.616-1.648,10.944-5.52,14.992   c-7.12,7.448-18.528,8.176-26.536,1.736l-59-47.536c-3.44-2.784-8.48-2.232-11.24,1.208c-0.016,0.024-0.016,0.048-0.032,0.064   l-0.064-0.056c-9.752,12.36-24.32,19.448-39.968,19.448c-28.168,0-51.08-23.112-51.08-51.504h-16   c0,24.952,13.56,46.736,33.608,58.416l-67.568,56.504c-0.392,0.328-0.688,0.736-1.064,1.08L52.87,293.96z M201.638,476.248   c-4.776-3.76-7.568-9.352-7.656-15.344c-0.096-6.008,2.48-11.648,7.056-15.48l4.272-3.576c1.168,8.112,4.928,15.704,11,21.288   l11.76,10.816l-1.456,1.216C219.206,481.352,208.702,481.808,201.638,476.248z M277.062,472.688   c-7.352,7.008-18.984,7.128-26.496,0.216l-23.432-21.552c-4.064-3.744-6.328-8.848-6.368-14.408   c-0.048-5.544,2.136-10.696,6.136-14.496c3.728-3.544,8.536-5.32,13.36-5.32c4.712,0,9.424,1.696,13.128,5.104l7.696,7.08   l15.768,14.512c4.04,3.736,6.296,8.832,6.344,14.36C283.246,463.728,281.062,468.888,277.062,472.688z M317.15,434.568   c-7.368,6.992-18.992,7.104-26.488,0.224l-2.944-2.712c-0.024-0.024-0.04-0.048-0.064-0.072l-20.432-18.792l0,0   c-4.056-3.736-6.32-8.84-6.368-14.392s2.136-10.704,6.136-14.504c3.728-3.536,8.536-5.32,13.36-5.32   c4.712,0,9.432,1.704,13.136,5.112l23.432,21.552c4.064,3.744,6.328,8.848,6.368,14.408   C323.334,425.608,321.15,430.76,317.15,434.568z M357.246,396.432c-7.368,7.008-18.992,7.112-26.488,0.216l-23.44-21.56   c-4.064-3.736-6.32-8.848-6.368-14.4s2.136-10.696,6.136-14.496c3.728-3.544,8.544-5.32,13.368-5.32   c4.712,0,9.424,1.696,13.12,5.104l17.072,15.704l6.384,5.88c4.048,3.728,6.296,8.84,6.344,14.384   C363.422,387.488,361.246,392.624,357.246,396.432z M397.342,358.304c-7.368,7.008-19,7.104-26.496,0.224l-2.952-2.72   c-0.024-0.016-0.032-0.048-0.056-0.064L349.638,339l-2.224-2.048c-4.064-3.744-6.328-8.848-6.368-14.408   c-0.048-5.544,2.136-10.696,6.136-14.496c3.72-3.544,8.528-5.32,13.352-5.32c4.712,0,9.432,1.704,13.136,5.112l23.44,21.56   c4.056,3.736,6.32,8.84,6.368,14.392S401.342,354.504,397.342,358.304z M480.006,220.608c-1.6,28.848-14.64,54.904-36.752,73.392   l-32.12,27.264c-1.032-1.248-2.008-2.536-3.208-3.64l-23.44-21.56c-13.656-12.552-34.888-12.4-48.344,0.4   c-7.136,6.792-11.176,16.344-11.104,26.224c0.008,0.888,0.224,1.744,0.296,2.624c-10.352-1.432-21.216,1.616-29.288,9.28   c-7.136,6.792-11.184,16.352-11.104,26.224c0.008,0.888,0.224,1.744,0.296,2.624c-10.352-1.432-21.216,1.6-29.288,9.272   c-7.144,6.8-11.176,16.36-11.104,26.232c0.008,0.888,0.224,1.744,0.296,2.616c-10.352-1.432-21.208,1.608-29.28,9.28   c-2.088,1.984-3.816,4.256-5.352,6.656c-1.024,0.304-2.016,0.8-2.896,1.528l-16.824,14.08c-0.008,0.008-0.024,0.008-0.032,0.016   l-2.424,2.032c-7.4,6.176-17.896,6.648-24.976,1.08c-4.776-3.76-7.56-9.352-7.648-15.344c-0.096-6,2.472-11.624,7.024-15.456   l0.04-0.032l0,0l83.216-69.584l-10.264-12.28L152.51,393.12l0.008,0.008h-0.008h-0.008l-2.416,2.024   c-7.408,6.2-17.904,6.648-24.976,1.088c-4.776-3.76-7.568-9.36-7.656-15.36s2.48-11.624,7.032-15.448l0.032-0.024l84.384-70.56   l-10.264-12.28l-84.384,70.56c-0.016,0.016-0.032,0.032-0.048,0.048l-3.088,2.568c-4.104,3.44-9.28,4.96-14.592,4.408   c-5.312-0.6-10.056-3.312-13.352-7.64c-6.28-8.264-4.416-20.832,4.168-28.008l74.032-61.904c5.36,1.392,10.952,2.216,16.736,2.216   c17.864,0,34.64-7.032,47.136-19.496l53.136,42.816c14.528,11.728,35.216,10.376,48.144-3.128c6.864-7.176,10.496-17,9.936-26.944   c-0.552-9.936-5.232-19.288-12.84-25.656l-63.072-52.736l52.528-43.92c40.832-34.168,101.696-30.744,138.52,7.776   C471.534,164.36,481.622,191.736,480.006,220.608z"/>
	<path style="fill:#333333;" d="M236.006,96.088h4v8h16v-8h4c11.032,0,20-8.968,20-20s-8.976-20-20-20h-24c-2.2,0-4-1.8-4-4   s1.8-4,4-4h24c2.2,0,4,1.8,4,4v4h16v-4c0-11.032-8.968-20-20-20h-4v-8h-16v8h-4c-11.032,0-20,8.968-20,20s8.968,20,20,20h24   c2.2,0,4,1.8,4,4s-1.8,4-4,4h-24c-2.2,0-4-1.8-4-4v-4h-16v4C216.006,87.12,224.974,96.088,236.006,96.088z"/>
	<path style="fill:#333333;" d="M344.926,64.192l0.84-15.984c-1.472-0.08-2.96-0.12-4.44-0.12h-12.912v16h12.904   C342.526,64.088,343.726,64.128,344.926,64.192z"/>
	<path style="fill:#333333;" d="M381.526,58.536c-5.448-3.056-11.256-5.488-17.28-7.224l-4.44,15.376   c4.84,1.4,9.52,3.352,13.904,5.808L381.526,58.536z"/>
	<path style="fill:#333333;" d="M409.078,83.488c-3.568-5.128-7.736-9.848-12.368-14.04l-10.736,11.856   c3.736,3.384,7.096,7.192,9.976,11.336L409.078,83.488z"/>
	<path style="fill:#333333;" d="M110.078,81.248l-10.72-11.872c-4.64,4.184-8.808,8.896-12.392,14.024l13.112,9.168   C102.974,88.432,106.342,84.624,110.078,81.248z"/>
	<path style="fill:#333333;" d="M136.294,66.656L131.87,51.28c-6.016,1.728-11.832,4.152-17.296,7.2l7.8,13.968   C126.758,70,131.446,68.048,136.294,66.656z"/>
	<path style="fill:#333333;" d="M154.678,64.088h13.016v-16h-13.016c-1.472,0-2.912,0.032-4.36,0.112l0.856,15.984   C152.342,64.12,153.51,64.088,154.678,64.088z"/>
</g>
<g>
</g>
<g>
</g>
<g>
</g>
<g>
</g>
<g>
</g>
<g>
</g>
<g>
</g>
<g>
</g>
<g>
</g>
<g>
</g>
<g>
</g>
<g>
</g>
<g>
</g>
<g>
</g>
<g>
</g>
</svg>
