<?xml version="1.0" encoding="iso-8859-1"?>
<!-- Generator: Adobe Illustrator 19.0.0, SVG Export Plug-In . SVG Version: 6.00 Build 0)  -->
<svg xmlns="http://www.w3.org/2000/svg" xmlns:xlink="http://www.w3.org/1999/xlink" version="1.1" id="Layer_1" x="0px" y="0px" viewBox="0 0 496 496" style="enable-background:new 0 0 496 496;" xml:space="preserve">
<g>
	<path style="fill:#333333;" d="M452,16h-28v64H272v16v16h8c8.824,0,16,7.176,16,16v28.296c-4.712-2.736-10.176-4.296-16-4.296h-8   v16h8c8.824,0,16,7.176,16,16h16v-56c0-17.648-14.352-32-32-32h144v320h8h8h12c15.44,0,28,12.56,28,28s-12.56,28-28,28h-20H16V96   h152c-17.648,0-32,14.352-32,32v56h16c0-8.824,7.176-16,16-16h8v-16h-8c-5.824,0-11.288,1.56-16,4.296V128c0-8.824,7.176-16,16-16   h8V96V80H0v408h432h20c24.256,0,44-19.744,44-44V60C496,35.744,476.256,16,452,16z M452,400h-12V32h12c15.44,0,28,12.56,28,28   v350.088C472.384,403.792,462.624,400,452,400z"/>
	<rect x="216" y="168" style="fill:#333333;" width="16" height="64"/>
	<rect x="216" y="248" style="fill:#333333;" width="16" height="16"/>
</g>
<path style="fill:#F9BA48;" d="M246.2,21.184L224,8l-22.2,13.184C180.632,35.296,168,58.904,168,84.336V168h112V84.336  C280,58.904,267.368,35.296,246.2,21.184z M224,112c-13.256,0-24-10.744-24-24s10.744-24,24-24s24,10.744,24,24S237.256,112,224,112  z"/>
<g>
	<rect x="184" y="168" style="fill:#333333;" width="16" height="40"/>
	<rect x="184" y="224" style="fill:#333333;" width="16" height="16"/>
	<rect x="248" y="168" style="fill:#333333;" width="16" height="40"/>
	<rect x="248" y="224" style="fill:#333333;" width="16" height="16"/>
	<path style="fill:#333333;" d="M160,312c0,3.528,0.808,6.848,2.184,9.872l-87.488,80.752C71.456,401,67.864,400,64,400   c-13.232,0-24,10.768-24,24s10.768,24,24,24s24-10.768,24-24c0-3.528-0.808-6.848-2.184-9.872l87.488-80.76   C176.544,335,180.136,336,184,336c3.416,0,6.648-0.744,9.592-2.032l41.184,47.064c-1.712,3.304-2.776,7-2.776,10.968   c0,13.232,10.768,24,24,24s24-10.768,24-24c0-3.848-0.992-7.44-2.608-10.664l88.712-95.536c3.024,1.384,6.36,2.2,9.896,2.2   c13.232,0,24-10.768,24-24s-10.768-24-24-24s-24,10.768-24,24c0,3.848,0.992,7.44,2.608,10.664L265.904,370.2   c-3.032-1.384-6.368-2.2-9.904-2.2c-3.416,0-6.648,0.736-9.592,2.032l-41.184-47.064c1.712-3.304,2.776-7,2.776-10.968   c0-13.232-10.768-24-24-24S160,298.768,160,312z M64,432c-4.416,0-8-3.584-8-8s3.584-8,8-8s8,3.584,8,8S68.416,432,64,432z    M376,256c4.416,0,8,3.584,8,8s-3.584,8-8,8s-8-3.584-8-8S371.584,256,376,256z M264,392c0,4.416-3.584,8-8,8s-8-3.584-8-8   s3.584-8,8-8S264,387.584,264,392z M184,304c4.416,0,8,3.584,8,8s-3.584,8-8,8s-8-3.584-8-8S179.584,304,184,304z"/>
	<path style="fill:#333333;" d="M224,120c17.648,0,32-14.352,32-32s-14.352-32-32-32s-32,14.352-32,32S206.352,120,224,120z M224,72   c8.824,0,16,7.176,16,16s-7.176,16-16,16s-16-7.176-16-16S215.176,72,224,72z"/>
</g>
<g>
</g>
<g>
</g>
<g>
</g>
<g>
</g>
<g>
</g>
<g>
</g>
<g>
</g>
<g>
</g>
<g>
</g>
<g>
</g>
<g>
</g>
<g>
</g>
<g>
</g>
<g>
</g>
<g>
</g>
</svg>
