<?xml version="1.0" encoding="iso-8859-1"?>
<!-- Generator: Adobe Illustrator 19.0.0, SVG Export Plug-In . SVG Version: 6.00 Build 0)  -->
<svg xmlns="http://www.w3.org/2000/svg" xmlns:xlink="http://www.w3.org/1999/xlink" version="1.1" id="Layer_1" x="0px" y="0px" viewBox="0 0 488 488" style="enable-background:new 0 0 488 488;" xml:space="preserve">
<path style="fill:#333333;" d="M383.472,97.672C383.824,94.456,384,91.216,384,88c0-48.52-39.48-88-88-88  c-36.864,0-69.704,23.192-82.392,57.288C209.144,56.432,204.584,56,200,56c-21.304,0-41.536,9.56-55.168,25.832  C139.248,80.608,133.608,80,128,80c-44.112,0-80,35.888-80,80s35.888,80,80,80h48v248h16v-8h112v8h16V240h48  c39.704,0,72-32.296,72-72C440,133.648,416.224,104.768,383.472,97.672z M192,384h112v32H192V384z M192,464v-32h112v32H192z   M368,224h-48v-32h-16v32h-24v16h24v32h-24v16h24v32h-24v16h24v32H192v-32h24v-16h-24v-32h24v-16h-24v-32h24v-16h-24v-32h-16v32h-48  c-35.288,0-64-28.712-64-64s28.712-64,64-64c5.896,0,11.864,0.856,17.728,2.544l5.44,1.56l3.288-4.6C164.976,80.792,182,72,200,72  c5.64,0,11.208,0.832,16.552,2.496l7.896,2.448l2.192-7.984C235.168,37.784,263.696,16,296,16c39.704,0,72,32.296,72,72  c0,4.912-0.504,9.848-1.512,14.696l-1.808,8.72l8.856,0.864C402.304,115.112,424,139.064,424,168C424,198.872,398.872,224,368,224z"/>
<g>
	<circle style="fill:#F9BA48;" cx="248" cy="112" r="24"/>
	<path style="fill:#F9BA48;" d="M320,72c-8.84,0-16,7.16-16,16v40l-26.664,16h-58.664L192,128V88c0-8.84-7.16-16-16-16   s-16,7.16-16,16v44.192c0,7.376,3.688,14.264,9.824,18.352L216,181.336V248v96c0,8.84,7.16,16,16,16s16-7.16,16-16   c0,8.84,7.16,16,16,16s16-7.16,16-16v-96v-66.664l46.176-30.784c6.136-4.096,9.824-10.984,9.824-18.36V88   C336,79.16,328.84,72,320,72z"/>
</g>
<g>
	<path style="fill:#333333;" d="M16,160H0c0,11.448,1.504,22.792,4.488,33.72l15.44-4.2C17.32,179.96,16,170.032,16,160z"/>
	<path style="fill:#333333;" d="M17.76,225.072c5.8,9.808,12.88,18.808,21.056,26.744l11.144-11.488   c-7.152-6.944-13.352-14.824-18.432-23.4L17.76,225.072z"/>
	<rect x="131.432" y="272" style="fill:#333333;" width="28.568" height="16"/>
	<path style="fill:#333333;" d="M66.112,272.072c10,5.528,20.68,9.688,31.728,12.352l3.752-15.56   c-9.656-2.32-18.984-5.952-27.728-10.792L66.112,272.072z"/>
	<path style="fill:#333333;" d="M472,168c0,4.984-0.352,9.976-1.056,14.832l15.84,2.28C487.592,179.504,488,173.744,488,168H472z"/>
	<path style="fill:#333333;" d="M442.552,240.504l11.472,11.16c8.808-9.056,16.088-19.368,21.656-30.648l-14.344-7.08   C456.504,223.72,450.184,232.656,442.552,240.504z"/>
	<path style="fill:#333333;" d="M385.744,270.496l2.72,15.768c12.432-2.144,24.384-6.216,35.528-12.112l-7.472-14.144   C406.856,265.112,396.504,268.632,385.744,270.496z"/>
	<rect x="336" y="272" style="fill:#333333;" width="16" height="16"/>
</g>
<g>
</g>
<g>
</g>
<g>
</g>
<g>
</g>
<g>
</g>
<g>
</g>
<g>
</g>
<g>
</g>
<g>
</g>
<g>
</g>
<g>
</g>
<g>
</g>
<g>
</g>
<g>
</g>
<g>
</g>
</svg>
