<?xml version="1.0" encoding="iso-8859-1"?>
<!-- Generator: Adobe Illustrator 19.0.0, SVG Export Plug-In . SVG Version: 6.00 Build 0)  -->
<svg xmlns="http://www.w3.org/2000/svg" xmlns:xlink="http://www.w3.org/1999/xlink" version="1.1" id="Layer_1" x="0px" y="0px" viewBox="0 0 496 496" style="enable-background:new 0 0 496 496;" xml:space="preserve">
<g>
	<circle style="fill:#F9BA48;" cx="248" cy="44" r="40"/>
	<path style="fill:#F9BA48;" d="M296,196h-96v-56c0-26.512,21.488-48,48-48l0,0c26.512,0,48,21.488,48,48V196z"/>
</g>
<g>
	<path style="fill:#333333;" d="M267.792,383.68C284.4,376.12,296,359.408,296,340c0-26.472-21.528-48-48-48s-48,21.528-48,48   c0,19.408,11.6,36.12,28.208,43.68C207.088,391.704,192,412.096,192,436v56h112v-56C304,412.096,288.912,391.704,267.792,383.68z    M216,340c0-17.648,14.352-32,32-32s32,14.352,32,32s-14.352,32-32,32S216,357.648,216,340z M288,476h-80v-40   c0-22.056,17.944-40,40-40s40,17.944,40,40V476z"/>
	<rect x="176" y="252" style="fill:#333333;" width="152" height="16"/>
	<path style="fill:#333333;" d="M496,164V4h-16v144H368v-3.352c0-10.296-4.008-19.968-11.28-27.24l-7.12-7.12   c1.496-3.136,2.4-6.592,2.4-10.288c0-13.232-10.768-24-24-24s-24,10.768-24,24s10.768,24,24,24c3.696,0,7.152-0.904,10.28-2.408   l7.12,7.12c4.192,4.2,6.6,10.008,6.6,15.936V148h-56v16h56v24H144v-24h56v-16h-56v-3.352c0-5.928,2.408-11.736,6.592-15.928   l7.12-7.12c3.136,1.496,6.592,2.4,10.288,2.4c13.232,0,24-10.768,24-24s-10.768-24-24-24s-24,10.768-24,24   c0,3.696,0.904,7.152,2.408,10.28l-7.12,7.12c-7.28,7.28-11.288,16.952-11.288,27.248V148H16V4H0v160h128v24h-16v48h16v62.496   c-7.072-4.104-15.256-6.496-24-6.496c-26.472,0-48,21.528-48,48c0,19.408,11.6,36.12,28.208,43.68   C63.088,391.704,48,412.096,48,436v56h112v-56c0-23.904-15.088-44.296-36.208-52.32C140.4,376.12,152,359.408,152,340   c0-9.784-2.952-18.88-8-26.48V236h208v77.52c-5.048,7.6-8,16.696-8,26.48c0,19.408,11.6,36.12,28.208,43.68   C351.088,391.704,336,412.096,336,436v56h112v-56c0-23.904-15.088-44.296-36.208-52.32C428.4,376.12,440,359.408,440,340   c0-26.472-21.528-48-48-48c-8.744,0-16.928,2.392-24,6.496V236h16v-48h-16v-24H496z M320,100c0-4.416,3.584-8,8-8s8,3.584,8,8   s-3.584,8-8,8S320,104.416,320,100z M168,92c4.416,0,8,3.584,8,8s-3.584,8-8,8s-8-3.584-8-8S163.584,92,168,92z M144,436v40H64v-40   c0-22.056,17.944-40,40-40S144,413.944,144,436z M104,372c-17.648,0-32-14.352-32-32s14.352-32,32-32s32,14.352,32,32   S121.648,372,104,372z M432,436v40h-80v-40c0-22.056,17.944-40,40-40S432,413.944,432,436z M392,308c17.648,0,32,14.352,32,32   s-14.352,32-32,32s-32-14.352-32-32S374.352,308,392,308z M368,220H128v-16h240V220z"/>
	<rect x="344" y="12" style="fill:#333333;" width="112" height="16"/>
	<rect x="384" y="44" style="fill:#333333;" width="72" height="16"/>
</g>
<g>
</g>
<g>
</g>
<g>
</g>
<g>
</g>
<g>
</g>
<g>
</g>
<g>
</g>
<g>
</g>
<g>
</g>
<g>
</g>
<g>
</g>
<g>
</g>
<g>
</g>
<g>
</g>
<g>
</g>
</svg>
