<?xml version="1.0" encoding="iso-8859-1"?>
<!-- Generator: Adobe Illustrator 19.0.0, SVG Export Plug-In . SVG Version: 6.00 Build 0)  -->
<svg xmlns="http://www.w3.org/2000/svg" xmlns:xlink="http://www.w3.org/1999/xlink" version="1.1" id="Layer_1" x="0px" y="0px" viewBox="0 0 496 496" style="enable-background:new 0 0 496 496;" xml:space="preserve">
<rect x="48" y="96" style="fill:#F9BA48;" width="272" height="352"/>
<g>
	<path style="fill:#333333;" d="M173.584,144.696l-5.336,21.368l15.512,3.872l9.104-36.392l-27.2-27.2l-11.312,11.312l11.896,11.896   c-41.656,7.248-75.752,39.528-84.216,82.064l15.688,3.128C105.184,177.2,136.264,149.168,173.584,144.696z"/>
	<path style="fill:#333333;" d="M163.608,333.976l3.128-15.688c-37.536-7.48-65.568-38.552-70.04-75.872l21.368,5.336l3.872-15.512   l-36.392-9.104l-27.2,27.2l11.312,11.312l11.896-11.896C88.8,291.416,121.08,325.512,163.608,333.976z"/>
	<path style="fill:#333333;" d="M184.24,294.064l-9.104,36.392l27.2,27.2l11.312-11.312l-11.896-11.896   c41.656-7.248,75.752-39.528,84.216-82.064l-15.688-3.128c-7.48,37.536-38.552,65.568-75.872,70.04l5.336-21.368L184.24,294.064z"/>
	<path style="fill:#333333;" d="M286.448,214.24c-7.248-41.656-39.528-75.752-82.064-84.216l-3.128,15.688   c37.536,7.48,65.568,38.552,70.04,75.872l-21.368-5.336l-3.872,15.512l36.392,9.104l27.2-27.2l-11.312-11.312L286.448,214.24z"/>
	<rect x="72" y="376" style="fill:#333333;" width="224" height="16"/>
	<rect x="192" y="408" style="fill:#333333;" width="104" height="16"/>
	<path style="fill:#333333;" d="M424,224h-16c-4.416,0-8-3.584-8-8h-16c0,13.232,10.768,24,24,24v16h16v-16   c13.232,0,24-10.768,24-24s-10.768-24-24-24h-16c-4.416,0-8-3.584-8-8s3.584-8,8-8h16c4.416,0,8,3.584,8,8h16   c0-13.232-10.768-24-24-24v-16h-16v16c-13.232,0-24,10.768-24,24s10.768,24,24,24h16c4.416,0,8,3.584,8,8S428.416,224,424,224z"/>
	<path style="fill:#333333;" d="M487.272,236.152C492.808,225.28,496,213.016,496,200c0-44.112-35.888-80-80-80   c-17.584,0-34.288,5.76-48,16.104V72c0-13.232-10.768-24-24-24h-65.472c-3.312-9.288-12.112-16-22.528-16h-24v-8   c0-13.232-10.768-24-24-24h-48c-13.232,0-24,10.768-24,24v8h-24c-10.416,0-19.216,6.712-22.528,16H24C10.768,48,0,58.768,0,72v400   c0,13.232,10.768,24,24,24h320c13.232,0,24-10.768,24-24v-64.176C381.704,418.184,398.4,424,416,424c44.112,0,80-35.888,80-80   c0-12.448-3.112-24.704-8.728-35.848C492.808,297.28,496,285.016,496,272C496,259.552,492.888,247.296,487.272,236.152z    M476.744,251.952C478.888,258.416,480,265.184,480,272c0,35.288-28.712,64-64,64c-18.488,0-35.824-7.872-48-21.712v-50.392   C381.712,274.24,398.416,280,416,280h8c4.416,0,8,3.584,8,8s-3.584,8-8,8h-16c-4.416,0-8-3.584-8-8h-16c0,13.232,10.768,24,24,24   v16h16v-16c13.232,0,24-10.768,24-24c0-4.864-1.472-9.384-3.976-13.168c12.736-4.784,23.928-12.688,32.64-22.832   C476.688,251.984,476.728,251.968,476.744,251.952z M416,136c35.288,0,64,28.712,64,64s-28.712,64-64,64   c-18.488,0-35.824-7.872-48-21.712v-84.576C380.176,143.872,397.512,136,416,136z M104,56c0-4.416,3.584-8,8-8h40V24   c0-4.416,3.584-8,8-8h48c4.416,0,8,3.584,8,8v24h40c4.416,0,8,3.584,8,8v24c0,4.416-3.584,8-8,8H112c-4.416,0-8-3.584-8-8V56z    M352,472c0,4.416-3.584,8-8,8H24c-4.416,0-8-3.584-8-8V72c0-4.416,3.584-8,8-8h64v16c0,13.232,10.768,24,24,24h144   c13.232,0,24-10.768,24-24V64h64c4.416,0,8,3.584,8,8v79.96v96.08V472z M476.744,323.952C478.888,330.416,480,337.184,480,344   c0,35.288-28.712,64-64,64c-18.488,0-35.824-7.872-48-21.712v-50.52C381.704,346.16,398.392,352,416,352h8c4.416,0,8,3.584,8,8   s-3.584,8-8,8h-16c-4.416,0-8-3.584-8-8h-16c0,13.232,10.768,24,24,24v16h16v-16c13.232,0,24-10.768,24-24   c0-4.864-1.472-9.384-3.976-13.168c12.728-4.784,23.912-12.68,32.624-22.808C476.672,324,476.72,323.976,476.744,323.952z"/>
</g>
<g>
</g>
<g>
</g>
<g>
</g>
<g>
</g>
<g>
</g>
<g>
</g>
<g>
</g>
<g>
</g>
<g>
</g>
<g>
</g>
<g>
</g>
<g>
</g>
<g>
</g>
<g>
</g>
<g>
</g>
</svg>
