<?xml version="1.0" encoding="iso-8859-1"?>
<!-- Generator: Adobe Illustrator 19.0.0, SVG Export Plug-In . SVG Version: 6.00 Build 0)  -->
<svg xmlns="http://www.w3.org/2000/svg" xmlns:xlink="http://www.w3.org/1999/xlink" version="1.1" id="Layer_1" x="0px" y="0px" viewBox="0 0 488.008 488.008" style="enable-background:new 0 0 488.008 488.008;" xml:space="preserve">
<polygon style="fill:#F9BA48;" points="400.004,24 272.004,24 272.004,128 400.004,128 464.004,72 "/>
<g>
	<path style="fill:#333333;" d="M160.004,80c0-26.472-21.528-48-48-48s-48,21.528-48,48s21.528,48,48,48S160.004,106.472,160.004,80   z M112.004,112c-17.648,0-32-14.352-32-32s14.352-32,32-32s32,14.352,32,32S129.652,112,112.004,112z"/>
	<path style="fill:#333333;" d="M296.004,156c0-11.128-6.576-20.68-16-25.192V0h-16v128h-152h-40c-26.472,0-48,21.528-48,48v108   c0,15.44,12.56,28,28,28c3.488,0,6.8-0.72,9.888-1.896l-13.8,146.408c-1.408,14.88,8.544,28.512,22.664,31.04   c1.704,0.304,3.4,0.456,5.08,0.456c6.08,0,11.92-1.952,16.84-5.696c6.192-4.72,10.168-11.856,10.896-19.608l8.432-89.408   l8.36,88.632c1.2,12.856,10.512,23.376,22.632,25.584c8.784,1.608,17.568-0.88,24.08-6.848c6.504-5.96,9.768-14.416,8.928-23.192   l-16-169.472V184h104v296h16V181.192C289.428,176.68,296.004,167.128,296.004,156z M268.004,168h-124l0.04,120.752l16.04,170.216   c0.352,3.752-1.04,7.36-3.824,9.904c-1.624,1.504-5.144,3.84-10.392,2.904c-5.024-0.92-9.048-5.688-9.584-11.352L120.036,288   h-16.064l-16.32,173.2c-0.312,3.304-2.016,6.36-4.664,8.376c-2.68,2.048-6.056,2.832-9.432,2.224   c-5.88-1.056-10.168-7.232-9.544-13.792L80.004,288v-4v-84v-24h-16v108c0,6.616-5.384,12-12,12s-12-5.384-12-12V176   c0-17.648,14.352-32,32-32h196c6.616,0,12,5.384,12,12S274.62,168,268.004,168z"/>
</g>
<g>
</g>
<g>
</g>
<g>
</g>
<g>
</g>
<g>
</g>
<g>
</g>
<g>
</g>
<g>
</g>
<g>
</g>
<g>
</g>
<g>
</g>
<g>
</g>
<g>
</g>
<g>
</g>
<g>
</g>
</svg>
