<?xml version="1.0" encoding="iso-8859-1"?>
<!-- Generator: Adobe Illustrator 19.0.0, SVG Export Plug-In . SVG Version: 6.00 Build 0)  -->
<svg xmlns="http://www.w3.org/2000/svg" xmlns:xlink="http://www.w3.org/1999/xlink" version="1.1" id="Layer_1" x="0px" y="0px" viewBox="0 0 496 496" style="enable-background:new 0 0 496 496;" xml:space="preserve">
<path style="fill:#333333;" d="M482.296,354.712c-8.712-7.856-20.296-11.68-32.064-10.504l-138.52,14.08  c0.504-4.44,0.232-9.032-1.104-13.576c-5.304-18.048-24.344-28.48-42.384-23.272L256,324.96v-48.6l42.624-28.416  C337.104,246.552,368,214.896,368,176.08v-8h-8c-38.208,0-69.464,29.936-71.776,67.568L256,257.128V136.08h-16v81.056l-32.224-21.48  c-2.312-37.648-33.568-67.576-71.776-67.576h-8v8c0,38.816,30.896,70.472,69.376,71.864L240,236.36v93.216L134.864,359.92H72v-16H0  v144h72v-6.864l110.944,14.792L297.6,495.92l172.832-72.016c15.528-6.48,25.568-21.528,25.568-38.36  C496,373.808,491.008,362.568,482.296,354.712z M351.328,184.752c-3.736,23.952-22.704,42.92-46.656,46.656  C308.408,207.448,327.376,188.48,351.328,184.752z M144.672,144.752c23.952,3.736,42.92,22.704,46.656,46.656  C167.376,187.672,148.408,168.704,144.672,144.752z M56,471.92H16v-112h40V471.92z M464.272,409.136L294.4,479.92H184.528L72,464.92  v-89h64l136.664-39.12c9.648-2.792,19.768,2.792,22.592,12.408c2.544,8.68-1.536,17.792-9.728,21.656l-96.952,45.824l6.84,14.472  l96.952-45.824c5.144-2.432,9.336-6.04,12.568-10.28l146.912-14.928c7.264-0.76,14.28,1.552,19.712,6.456  c5.448,4.904,8.44,11.64,8.44,18.96C480,395.896,473.832,405.152,464.272,409.136z"/>
<path style="fill:#F9BA48;" d="M248,144.08c-39.704,0-72-32.296-72-72s32.296-72,72-72s72,32.296,72,72S287.704,144.08,248,144.08z"/>
<g>
	<polygon style="fill:#333333;" points="440,80.08 440,96.08 456,96.08 456,112.08 472,112.08 472,96.08 488,96.08 488,80.08    472,80.08 472,64.08 456,64.08 456,80.08  "/>
	<path style="fill:#333333;" d="M256,96.08h-16c-4.416,0-8-3.584-8-8h-16c0,13.232,10.768,24,24,24v8h16v-8   c13.232,0,24-10.768,24-24s-10.768-24-24-24h-16c-4.416,0-8-3.584-8-8s3.584-8,8-8h16c4.416,0,8,3.584,8,8h16   c0-13.232-10.768-24-24-24v-8h-16v8c-13.232,0-24,10.768-24,24s10.768,24,24,24h16c4.416,0,8,3.584,8,8S260.416,96.08,256,96.08z"/>
	<polygon style="fill:#333333;" points="400,72.08 416,72.08 416,48.08 440,48.08 440,32.08 416,32.08 416,8.08 400,8.08 400,32.08    376,32.08 376,48.08 400,48.08  "/>
	<polygon style="fill:#333333;" points="424,160.08 424,144.08 440,144.08 440,128.08 424,128.08 424,112.08 408,112.08 408,128.08    392,128.08 392,144.08 408,144.08 408,160.08  "/>
	<polygon style="fill:#333333;" points="88,96.08 104,96.08 104,80.08 120,80.08 120,64.08 104,64.08 104,48.08 88,48.08 88,64.08    72,64.08 72,80.08 88,80.08  "/>
	<polygon style="fill:#333333;" points="32,160.08 48,160.08 48,136.08 72,136.08 72,120.08 48,120.08 48,96.08 32,96.08 32,120.08    8,120.08 8,136.08 32,136.08  "/>
</g>
<g>
</g>
<g>
</g>
<g>
</g>
<g>
</g>
<g>
</g>
<g>
</g>
<g>
</g>
<g>
</g>
<g>
</g>
<g>
</g>
<g>
</g>
<g>
</g>
<g>
</g>
<g>
</g>
<g>
</g>
</svg>
