<?xml version="1.0" encoding="iso-8859-1"?>
<!-- Generator: Adobe Illustrator 19.0.0, SVG Export Plug-In . SVG Version: 6.00 Build 0)  -->
<svg xmlns="http://www.w3.org/2000/svg" xmlns:xlink="http://www.w3.org/1999/xlink" version="1.1" id="Layer_1" x="0px" y="0px" viewBox="0 0 496 496" style="enable-background:new 0 0 496 496;" xml:space="preserve">
<g>
	<path style="fill:#333333;" d="M248,496C111.248,496,0,384.752,0,248S111.248,0,248,0s248,111.248,248,248S384.752,496,248,496z    M248,16C120.08,16,16,120.08,16,248s104.08,232,232,232s232-104.08,232-232S375.92,16,248,16z"/>
	<path style="fill:#333333;" d="M358.336,167.2C329.672,55.072,245.544,15.672,244.704,15.288l6.584-14.584   c3.736,1.688,91.896,42.632,122.544,162.528L358.336,167.2z"/>
	<path style="fill:#333333;" d="M130.128,210.296c4.688-43.816,17.632-82.976,38.656-116.544l-13.56-8.496   c-24.48,39.08-38.6,85.128-42.152,136.832C118.008,218.312,123.704,214.328,130.128,210.296z"/>
	<path style="fill:#333333;" d="M130.08,285.68c-6.44-4.048-12.136-8.04-17.072-11.808C124.328,439,239.752,493.064,244.704,495.296   l6.576-14.576C250.2,480.216,145.8,431.36,130.08,285.68z"/>
</g>
<path style="fill:#F9BA48;" d="M405.992,242.704C403.584,239.976,345.888,176,248,176S92.416,239.976,90.008,242.704L85.32,248  l4.688,5.296C92.416,256.024,150.112,320,248,320s155.584-63.976,157.992-66.704L410.68,248L405.992,242.704z M248,312  c-35.344,0-64-28.656-64-64s28.656-64,64-64s64,28.656,64,64S283.344,312,248,312z"/>
<g>
	<path style="fill:#333333;" d="M365.912,285.68C350.2,430.936,245.784,480.216,244.696,480.712l6.592,14.576   c4.952-2.232,120.376-56.296,131.696-221.424C378.056,277.64,372.352,281.632,365.912,285.68z"/>
	<path style="fill:#333333;" d="M197.712,56.384l-11.608-11.016C216,13.856,243.552,1.224,244.712,0.704l6.584,14.584   C251.04,15.408,225.288,27.304,197.712,56.384z"/>
	<rect x="240" y="8" style="fill:#333333;" width="16" height="176"/>
	<path style="fill:#333333;" d="M90.008,253.296L85.32,248l4.688-5.296c0.24-0.272,1.2-1.312,2.552-2.704H8v16h84.56   C91.208,254.608,90.248,253.568,90.008,253.296z"/>
	<path style="fill:#333333;" d="M248,152c-64.904,0-126.304-24.952-172.872-70.264l11.16-11.472C129.848,112.656,187.28,136,248,136   s118.152-23.344,161.72-65.736l11.16,11.472C374.304,127.048,312.904,152,248,152z"/>
	<path style="fill:#333333;" d="M86.28,425.736l-11.16-11.472c27.544-26.808,61.352-47.096,97.76-58.664l4.84,15.248   C143.68,381.672,112.064,400.648,86.28,425.736z"/>
	<path style="fill:#333333;" d="M409.72,425.736C366.152,383.344,308.72,360,248,360c-7.712,0-15.488,0.384-23.104,1.144   l-1.576-15.92C231.456,344.408,239.76,344,248,344c64.904,0,126.304,24.952,172.872,70.264L409.72,425.736z"/>
	<path style="fill:#333333;" d="M175.608,101.128c-17.648,0-32-14.352-32-32s14.352-32,32-32s32,14.352,32,32   S193.256,101.128,175.608,101.128z M175.608,53.128c-8.824,0-16,7.176-16,16s7.176,16,16,16s16-7.176,16-16   S184.432,53.128,175.608,53.128z"/>
	<path style="fill:#333333;" d="M199.304,389.36c-17.648,0-32-14.352-32-32s14.352-32,32-32s32,14.352,32,32   S216.952,389.36,199.304,389.36z M199.304,341.36c-8.824,0-16,7.176-16,16s7.176,16,16,16s16-7.176,16-16   S208.128,341.36,199.304,341.36z"/>
	<path style="fill:#333333;" d="M403.44,240c1.352,1.392,2.304,2.432,2.552,2.704L410.68,248l-4.688,5.296   c-0.24,0.272-1.2,1.312-2.552,2.704H488v-16H403.44z"/>
	<rect x="240" y="312" style="fill:#333333;" width="16" height="176"/>
	<path style="fill:#333333;" d="M382.92,222.08c-3.552-51.704-17.672-97.752-42.152-136.832l-13.56,8.496   c21.024,33.568,33.968,72.728,38.656,116.544C372.296,214.328,377.992,218.312,382.92,222.08z"/>
	<path style="fill:#333333;" d="M248,320c-39.704,0-72-32.296-72-72s32.296-72,72-72s72,32.296,72,72S287.704,320,248,320z M248,192   c-30.872,0-56,25.128-56,56s25.128,56,56,56s56-25.128,56-56S278.872,192,248,192z"/>
	<path style="fill:#333333;" d="M248,280c-17.648,0-32-14.352-32-32s14.352-32,32-32s32,14.352,32,32S265.648,280,248,280z M248,232   c-8.824,0-16,7.176-16,16s7.176,16,16,16s16-7.176,16-16S256.824,232,248,232z"/>
</g>
<g>
</g>
<g>
</g>
<g>
</g>
<g>
</g>
<g>
</g>
<g>
</g>
<g>
</g>
<g>
</g>
<g>
</g>
<g>
</g>
<g>
</g>
<g>
</g>
<g>
</g>
<g>
</g>
<g>
</g>
</svg>
