<?xml version="1.0" encoding="iso-8859-1"?>
<!-- Generator: Adobe Illustrator 19.0.0, SVG Export Plug-In . SVG Version: 6.00 Build 0)  -->
<svg xmlns="http://www.w3.org/2000/svg" xmlns:xlink="http://www.w3.org/1999/xlink" version="1.1" id="Layer_1" x="0px" y="0px" viewBox="0 0 480 480" style="enable-background:new 0 0 480 480;" xml:space="preserve">
<path style="fill:#F9BA48;" d="M296,296H176v-8c0-23.752-8.424-46.856-24.36-67.28c-18.608-23.824-26.648-53.632-22.632-83.936  c6.616-49.992,47.824-90.384,97.984-96.048c31.88-3.592,63.84,6.496,87.6,27.72C338.368,89.688,352,120.144,352,152  c0,25.576-8.424,49.656-24.36,69.632C312.4,240.76,304,264.16,304,287.504v8L296,296z"/>
<g>
	<rect x="232" style="fill:#333333;" width="16" height="24"/>
	
		<rect x="162.004" y="18.755" transform="matrix(-0.866 0.5001 -0.5001 -0.866 332.605 -27.6278)" style="fill:#333333;" width="16" height="24.001"/>
	
		<rect x="110.765" y="70.003" transform="matrix(-0.5001 0.866 -0.866 -0.5001 249.1716 20.1645)" style="fill:#333333;" width="16" height="24.001"/>
	<rect x="88" y="144" style="fill:#333333;" width="24" height="16"/>
	<rect x="368" y="144" style="fill:#333333;" width="24" height="16"/>
	
		<rect x="349.246" y="73.975" transform="matrix(-0.8661 0.4999 -0.4999 -0.8661 715.0951 -27.6106)" style="fill:#333333;" width="24" height="16"/>
	
		<rect x="297.994" y="22.787" transform="matrix(-0.4999 0.8661 -0.8661 -0.4999 491.6221 -222.3053)" style="fill:#333333;" width="24" height="16"/>
	<path style="fill:#333333;" d="M464,368h-25.04c-6.56-28.2-47.616-52.032-110.968-64.048C327.968,290.736,317.216,280,304,280h-24   v-70.096c9.64-6.464,16-17.456,16-29.904c0-19.848-16.152-36-36-36h-40c-11.032,0-20-8.968-20-20s8.968-20,20-20h40   c11.032,0,20,8.968,20,20v4h16v-4c0-19.848-16.152-36-36-36h-12V72h-16v16h-12c-19.848,0-36,16.152-36,36s16.152,36,36,36h40   c11.032,0,20,8.968,20,20s-8.968,20-20,20h-40c-11.032,0-20-8.968-20-20v-4h-16v4c0,12.456,6.36,23.44,16,29.904V280h-24   c-13.184,0-23.904,10.688-23.984,23.856C88.344,315.84,47.08,339.712,40.504,368H16v16h24.432   c9.512,39.96,89.696,70.448,191.568,71.928V480h16v-24.08c101.616-1.576,181.544-32.032,191.04-71.92H464V368z M296,368   c0,4.416-3.584,8-8,8h-96c-4.416,0-8-3.584-8-8s3.584-8,8-8h96C292.416,360,296,363.584,296,368z M304,336c0,4.416-3.584,8-8,8h-8   h-96h-8c-4.416,0-8-3.584-8-8s3.584-8,8-8h112C300.416,328,304,331.584,304,336z M216,215.592c1.328,0.152,2.632,0.408,4,0.408h12   v16h16v-16h12c1.368,0,2.672-0.256,4-0.408V280h-48V215.592z M176,296h128c4.416,0,8,3.584,8,8s-3.584,8-8,8h-8H184h-8   c-4.416,0-8-3.584-8-8S171.584,296,176,296z M248,439.84V416h-16v23.848C136.976,438.416,68.848,411.176,57.376,384H80v-16H57.216   c8.328-20.072,47.032-39.208,100.288-48.896c1.632,1.992,3.528,3.744,5.712,5.128C161.224,327.728,160,331.704,160,336   c0,8.52,4.496,15.976,11.208,20.232C169.224,359.728,168,363.704,168,368c0,13.232,10.768,24,24,24h96c13.232,0,24-10.768,24-24   c0-4.296-1.224-8.272-3.208-11.768C315.504,351.976,320,344.52,320,336c0-4.296-1.224-8.272-3.208-11.768   c2.152-1.368,4.024-3.088,5.64-5.048c53.872,9.84,91.816,28.608,99.888,48.816H400v16h22.088   C410.64,411.128,342.744,438.312,248,439.84z"/>
</g>
<g>
</g>
<g>
</g>
<g>
</g>
<g>
</g>
<g>
</g>
<g>
</g>
<g>
</g>
<g>
</g>
<g>
</g>
<g>
</g>
<g>
</g>
<g>
</g>
<g>
</g>
<g>
</g>
<g>
</g>
</svg>
