<?xml version="1.0" encoding="iso-8859-1"?>
<!-- Generator: Adobe Illustrator 19.0.0, SVG Export Plug-In . SVG Version: 6.00 Build 0)  -->
<svg xmlns="http://www.w3.org/2000/svg" xmlns:xlink="http://www.w3.org/1999/xlink" version="1.1" id="Layer_1" x="0px" y="0px" viewBox="0 0 479.854 479.854" style="enable-background:new 0 0 479.854 479.854;" xml:space="preserve">
<path style="fill:#F9BA48;" d="M439.911,175.926c0-96.392-77.52-174.68-173.624-175.912  C182.655-1.058,109.111,59.038,91.743,140.846c-4.768,22.448-4.64,44.112-1.16,64.64l-50.656,90.368l56.128,12.8v99.2h80v72h176  v-107.64c53.096-36.552,87.912-97.752,87.872-167.096L439.911,175.926z M367.927,143.998h-17.608  c-2.072,10.208-6.112,19.696-11.672,28.096l12.472,12.472l-22.624,22.624l-12.472-12.472c-8.392,5.56-17.88,9.6-28.096,11.672  v17.608h-32V206.39c-10.208-2.072-19.696-6.112-28.096-11.672l-12.472,12.472l-22.624-22.624l12.472-12.472  c-5.56-8.392-9.6-17.88-11.672-28.096h-17.608v-32h17.608c2.072-10.208,6.112-19.696,11.672-28.096L192.735,71.43l22.624-22.632  l12.472,12.472c8.392-5.56,17.88-9.6,28.096-11.672v-17.6h32v17.608c10.208,2.072,19.696,6.112,28.096,11.672l12.472-12.48  l22.624,22.624l-12.472,12.472c5.56,8.392,9.6,17.88,11.672,28.096h17.608V143.998z"/>
<g>
	<path style="fill:#333333;" d="M295.927,231.998h-48v-19.32c-6.576-1.856-12.888-4.496-18.888-7.848l-13.68,13.68l-33.936-33.936   l13.68-13.68c-3.36-6-5.992-12.312-7.848-18.888h-19.328v-48h19.32c1.856-6.576,4.496-12.888,7.848-18.888l-13.68-13.68   l33.936-33.936l13.68,13.68c6-3.36,12.312-5.992,18.888-7.848V23.998h48v19.32c6.576,1.856,12.888,4.496,18.888,7.848l13.68-13.68   l33.936,33.936l-13.68,13.68c3.36,6,5.992,12.312,7.848,18.888h19.336v48h-19.32c-1.856,6.576-4.496,12.888-7.848,18.888   l13.68,13.68l-33.936,33.936l-13.68-13.68c-6,3.36-12.312,5.992-18.888,7.848v19.336H295.927z M263.927,215.998h16v-16.152   l6.416-1.304c9.008-1.824,17.504-5.36,25.256-10.496l5.456-3.616l11.448,11.448l11.312-11.312l-11.448-11.448l3.616-5.456   c5.136-7.752,8.672-16.248,10.496-25.256l1.296-6.408h16.152v-16h-16.152l-1.304-6.416c-1.824-9.008-5.36-17.504-10.496-25.256   l-3.616-5.456l11.448-11.448L328.495,60.11l-11.448,11.448l-5.456-3.616c-7.752-5.136-16.248-8.672-25.256-10.496l-6.408-1.296   V39.998h-16V56.15l-6.416,1.304c-9.008,1.824-17.504,5.36-25.256,10.496l-5.456,3.616l-11.448-11.448L204.039,71.43l11.448,11.448   l-3.616,5.456c-5.136,7.752-8.672,16.248-10.496,25.256l-1.296,6.408h-16.152v16h16.152l1.304,6.416   c1.824,9.008,5.36,17.504,10.496,25.256l3.616,5.456l-11.448,11.448l11.312,11.312l11.448-11.448l5.456,3.616   c7.752,5.136,16.248,8.672,25.256,10.496l6.408,1.296V215.998z"/>
	<path style="fill:#333333;" d="M303.927,127.998c0,17.648-14.352,32-32,32s-32-14.352-32-32c0-16.552,12.664-30.04,28.792-31.672   l-4.376,13.144l15.168,5.064l9.24-27.712l-18.168-27.256l-13.312,8.872l8.048,12.072c-23.344,3.232-41.392,23.264-41.392,47.488   c0,26.472,21.528,48,48,48s48-21.528,48-48H303.927z"/>
</g>
<g>
</g>
<g>
</g>
<g>
</g>
<g>
</g>
<g>
</g>
<g>
</g>
<g>
</g>
<g>
</g>
<g>
</g>
<g>
</g>
<g>
</g>
<g>
</g>
<g>
</g>
<g>
</g>
<g>
</g>
</svg>
