<?xml version="1.0" encoding="iso-8859-1"?>
<!-- Generator: Adobe Illustrator 19.0.0, SVG Export Plug-In . SVG Version: 6.00 Build 0)  -->
<svg xmlns="http://www.w3.org/2000/svg" xmlns:xlink="http://www.w3.org/1999/xlink" version="1.1" id="Layer_1" x="0px" y="0px" viewBox="0 0 496 496" style="enable-background:new 0 0 496 496;" xml:space="preserve">
<g>
	<path style="fill:#F9BA48;" d="M184,352h-48v-48h48V352z"/>
	<path style="fill:#F9BA48;" d="M248,352h-48v-72h48V352z"/>
	<path style="fill:#F9BA48;" d="M312,352h-48v-64h48V352z"/>
	<path style="fill:#F9BA48;" d="M376,352h-48V240h48V352z"/>
</g>
<g>
	<path style="fill:#333333;" d="M152.936,208H176v1.472c-9.288,3.312-16,12.112-16,22.528c0,13.232,10.768,24,24,24   c10.416,0,19.216-6.712,22.528-16h66.952c3.312,9.288,12.112,16,22.528,16c13.232,0,24-10.768,24-24   c0-10.416-6.712-19.216-16-22.528V208h23.24l9.6-96H327.6c-4.032-40.368-38.192-72-79.6-72s-75.568,31.632-79.592,72H168v16h151.16   l-6.4,64H167.064l-16-128H96v16h40.936L152.936,208z M248,56c32.576,0,59.488,24.48,63.448,56H232v-8c0-8.824,7.176-16,16-16   s16,7.176,16,16h16c0-14.872-10.232-27.288-24-30.864V64h-16v9.136c-13.768,3.576-24,15.992-24,30.864v8h-31.448   C188.512,80.48,215.424,56,248,56z M273.472,224H206.52c-2.416-6.776-7.752-12.112-14.528-14.528V208h96v1.472   C281.224,211.888,275.888,217.224,273.472,224z M184,240c-4.416,0-8-3.584-8-8s3.584-8,8-8s8,3.584,8,8S188.416,240,184,240z    M296,240c-4.416,0-8-3.584-8-8s3.584-8,8-8s8,3.584,8,8S300.416,240,296,240z"/>
	<rect x="176" y="152" style="fill:#333333;" width="128" height="16"/>
	<path style="fill:#333333;" d="M440,400V192c0-13.232-10.768-24-24-24h-72v16h72c4.416,0,8,3.584,8,8v208H72V192   c0-4.416,3.584-8,8-8h56v-16H80c-13.232,0-24,10.768-24,24v208H0v32c0,13.232,10.768,24,24,24h448c13.232,0,24-10.768,24-24v-32   H440z M480,432c0,4.416-3.584,8-8,8H24c-4.416,0-8-3.584-8-8v-16h40h384h40V432z"/>
	<polygon style="fill:#333333;" points="392,368 104,368 104,216 136,216 136,200 88,200 88,384 408,384 408,200 344,200 344,216    392,216  "/>
</g>
<g>
</g>
<g>
</g>
<g>
</g>
<g>
</g>
<g>
</g>
<g>
</g>
<g>
</g>
<g>
</g>
<g>
</g>
<g>
</g>
<g>
</g>
<g>
</g>
<g>
</g>
<g>
</g>
<g>
</g>
</svg>
