<?xml version="1.0" encoding="iso-8859-1"?>
<!-- Generator: Adobe Illustrator 19.0.0, SVG Export Plug-In . SVG Version: 6.00 Build 0)  -->
<svg xmlns="http://www.w3.org/2000/svg" xmlns:xlink="http://www.w3.org/1999/xlink" version="1.1" id="Layer_1" x="0px" y="0px" viewBox="0 0 488 488" style="enable-background:new 0 0 488 488;" xml:space="preserve">
<g>
	<path style="fill:#F9BA48;" d="M244,168V88c-44.184,0-80,35.816-80,80s35.816,80,80,80c30.304,0,56.656-16.848,70.24-41.688   L244,168z"/>
	<path style="fill:#F9BA48;" d="M100,488c-22.056,0-40-17.944-40-40s17.944-40,40-40s40,17.944,40,40S122.056,488,100,488z"/>
	<path style="fill:#F9BA48;" d="M396,424c-22.056,0-40-17.944-40-40s17.944-40,40-40s40,17.944,40,40S418.056,424,396,424z"/>
</g>
<g>
	<path style="fill:#333333;" d="M332,168c0-48.52-39.48-88-88-88s-88,39.48-88,88s39.48,88,88,88S332,216.52,332,168z M316,168   c0,9.832-1.992,19.208-5.576,27.752L252,163.288V96.472C287.944,100.464,316,131,316,168z M172,168c0-37,28.056-67.536,64-71.528   v76.24l66.584,36.984C289.52,228.008,268.16,240,244,240C204.296,240,172,207.704,172,168z"/>
	<path style="fill:#333333;" d="M345.336,232H364c44.112,0,80-35.888,80-80c0-41.888-32.368-76.368-73.408-79.736   C363.144,30.608,327.08,0,284,0c-27.488,0-53.136,12.752-69.768,34.392C208.232,32.808,202.128,32,196,32   c-27.424,0-52.64,15.992-64.624,40.384C128.84,72.128,126.4,72,124,72c-44.112,0-80,35.888-80,80s35.888,80,80,80h18.664   c15.752,24.848,40.328,43.488,69.336,51.536V312h-24v16h16v120c0,22.056,17.944,40,40,40s40-17.944,40-40V328h16v-16h-24v-28.464   C305.008,275.488,329.584,256.848,345.336,232z M284,16c37.176,0,67.976,27.856,71.632,64.816l1.12,7.184H364   c35.288,0,64,28.712,64,64s-28.712,64-64,64h-10.088C360.36,201.288,364,185.072,364,168c0-66.168-53.832-120-120-120   c-7.232,0-14.28,0.752-21.168,1.984l1.208-1.816C237.456,28.024,259.864,16,284,16z M124,216c-35.288,0-64-28.712-64-64   s28.712-64,64-64c3.4,0,6.976,0.328,10.928,1.008l6.472,1.12l2.352-6.136C152.008,62.464,173.008,48,196,48   c6.288,0,12.584,1.104,18.712,3.272l0.8,0.288C163.072,64.4,124,111.656,124,168c0,17.072,3.64,33.288,10.088,48H124z M140,168   c0-57.344,46.656-104,104-104s104,46.656,104,104s-46.656,104-104,104S140,225.344,140,168z M268,448c0,13.232-10.768,24-24,24   s-24-10.768-24-24V328h48V448z M260,312h-32v-25.192c5.248,0.704,10.56,1.192,16,1.192s10.752-0.488,16-1.192V312z"/>
	<rect x="68" y="272" style="fill:#333333;" width="16" height="120"/>
	<rect x="68" y="240" style="fill:#333333;" width="16" height="16"/>
	<rect x="116" y="296" style="fill:#333333;" width="16" height="96"/>
	<rect x="116" y="264" style="fill:#333333;" width="16" height="16"/>
	<rect x="364" y="288" style="fill:#333333;" width="16" height="40"/>
	<rect x="364" y="256" style="fill:#333333;" width="16" height="16"/>
	<rect x="412" y="264" style="fill:#333333;" width="16" height="64"/>
	<rect x="412" y="232" style="fill:#333333;" width="16" height="16"/>
</g>
<g>
</g>
<g>
</g>
<g>
</g>
<g>
</g>
<g>
</g>
<g>
</g>
<g>
</g>
<g>
</g>
<g>
</g>
<g>
</g>
<g>
</g>
<g>
</g>
<g>
</g>
<g>
</g>
<g>
</g>
</svg>
