<?xml version="1.0" encoding="iso-8859-1"?>
<!-- Generator: Adobe Illustrator 19.0.0, SVG Export Plug-In . SVG Version: 6.00 Build 0)  -->
<svg xmlns="http://www.w3.org/2000/svg" xmlns:xlink="http://www.w3.org/1999/xlink" version="1.1" id="Layer_1" x="0px" y="0px" viewBox="0 0 496 496" style="enable-background:new 0 0 496 496;" xml:space="preserve">
<path style="fill:#333333;" d="M400,312c13.232,0,24,10.768,24,24h16c0-22.056-17.944-40-40-40h-16v-19.008  c27.76-8.56,48-34.456,48-64.992c0-2.176-0.12-4.336-0.328-6.488c-0.08-0.856-0.232-1.688-0.344-2.536  c-0.168-1.24-0.328-2.472-0.568-3.704c-0.216-1.128-0.488-2.232-0.76-3.344c-0.208-0.864-0.416-1.72-0.664-2.576  c-0.384-1.344-0.824-2.656-1.28-3.96c-0.112-0.32-0.192-0.648-0.312-0.968C440.68,175.68,448,158.344,448,140  c0-30.408-20.304-56.992-49.064-65.304C392.464,32.368,355.344,0,312,0c-2.68,0-5.352,0.16-8,0.408  c-0.952,0.088-1.888,0.216-2.832,0.336c-1.664,0.208-3.328,0.456-4.976,0.76c-1.104,0.2-2.2,0.408-3.288,0.648  c-1.512,0.336-3,0.736-4.48,1.152c-1.056,0.296-2.128,0.552-3.168,0.88c-2.24,0.72-4.448,1.536-6.632,2.432  c-1.128,0.464-2.224,1-3.336,1.512c-1.248,0.576-2.488,1.16-3.712,1.792c-1.088,0.56-2.152,1.152-3.208,1.76  c-1.232,0.704-2.44,1.448-3.632,2.208c-0.96,0.616-1.928,1.224-2.864,1.872c-0.264,0.184-0.536,0.336-0.8,0.52  C250.016,5.848,235.424,0,220,0c-15.896,0-31.032,6.296-42.248,17.44C173.208,16.488,168.6,16,164,16  c-34.32,0-62.808,25.376-67.304,58.792C68.152,83.232,48,109.752,48,140c0,14.16,4.456,27.992,12.632,39.464  C57.552,187.328,56,195.56,56,204c0,33.392,24.216,61.184,56,66.872V296H96c-22.056,0-40,17.944-40,40h16c0-13.232,10.768-24,24-24  h32v-40.2c1.656-0.096,3.304-0.24,4.928-0.456c0.552-0.072,1.104-0.168,1.656-0.256c2.96-0.464,5.872-1.08,8.704-1.92  c11,7.104,23.6,10.832,36.712,10.832c14.664,0,28.632-4.616,40.224-13.168c5.304,7.664,12.088,13.952,19.776,18.768V336h16v-43.104  c6.376,1.96,13.072,3.104,20,3.104c20.976,0,40.296-9.456,53.144-25.656C339.664,276.688,351.56,280,364,280  c1.352,0,2.672-0.128,4-0.2V312H400z M332.056,252.968l-3.28-2.56c-10.704-9.792-16.944-23.744-16.944-38.408h-16  c0,18.416,7.6,35.912,20.6,48.616C306.6,272.856,291.928,280,276,280c-19.864,0-37.712-11.104-46.56-28.984l-4.928-9.944  l-7.88,7.832C206.824,258.632,193.816,264,180,264c-6.328,0-12.456-1.264-18.272-3.472C179.968,248.32,192,227.544,192,204  c0-25.32-13.928-48.392-36.352-60.2l-7.456,14.16C165.344,166.992,176,184.632,176,204c0,22.448-14.328,41.56-34.296,48.832  c-2.816,1.016-5.672,1.784-8.544,2.312c-0.192,0.032-0.384,0.056-0.576,0.088C129.728,255.72,126.864,256,124,256  c-28.672,0-52-23.328-52-52c0-7.696,1.704-15.176,5.064-22.256l2.192-4.608l-3.264-3.928C68.256,163.888,64,152.104,64,140  c0-24.688,17.544-46.128,41.712-50.976l6.136-1.224l0.288-6.24C113.432,53.768,136.208,32,164,32c4.752,0,9.528,0.68,14.192,2.024  l4.952,1.432l3.352-3.928C194.896,21.656,207.112,16,220,16c10.736,0,20.888,3.928,28.84,10.864C233.496,42.712,224,64.256,224,88  h16c0-22.048,9.984-41.784,25.64-55.008c1.04-0.88,2.128-1.68,3.208-2.496c0.688-0.52,1.36-1.056,2.072-1.552  c1.08-0.752,2.192-1.44,3.304-2.128c0.752-0.464,1.496-0.936,2.264-1.376c1.144-0.656,2.32-1.256,3.496-1.84  c0.784-0.392,1.568-0.776,2.368-1.144c1.2-0.544,2.416-1.048,3.64-1.528c0.84-0.328,1.688-0.632,2.536-0.928  c1.208-0.416,2.432-0.816,3.664-1.168c0.96-0.272,1.936-0.512,2.912-0.752c1.152-0.28,2.304-0.56,3.472-0.784  c1.232-0.232,2.48-0.4,3.728-0.568c0.952-0.128,1.904-0.288,2.864-0.384C307.424,16.136,309.696,16,312,16  c37.056,0,68.544,28.912,71.688,65.832l0.504,6.008l5.912,1.168C414.384,93.784,432,115.224,432,140  c0,12.336-4.384,24.024-12.152,33.304C407.552,155.624,387.12,144,364,144v16c20.728,0,38.616,12.224,46.96,29.816  c0.784,1.656,1.472,3.344,2.08,5.04c0.048,0.136,0.104,0.272,0.152,0.408c0.536,1.56,0.976,3.144,1.36,4.736  c0.064,0.28,0.152,0.56,0.216,0.848c0.328,1.48,0.56,2.976,0.76,4.472c0.048,0.368,0.128,0.728,0.168,1.104  c0.192,1.848,0.304,3.704,0.304,5.576c0,28.672-23.328,52-52,52C352.352,264,341.304,260.184,332.056,252.968z"/>
<g>
	<path style="fill:#F9BA48;" d="M64,328c-35.288,0-64,28.712-64,64c0,19.448,8.896,37.8,24,49.92V496h80v-54.08   c15.104-12.128,24-30.48,24-49.92C128,356.712,99.288,328,64,328z M64,408c-8.84,0-16-7.16-16-16s7.16-16,16-16s16,7.16,16,16   S72.84,408,64,408z"/>
	<path style="fill:#F9BA48;" d="M248,328c-35.288,0-64,28.712-64,64c0,19.448,8.896,37.8,24,49.92V496h80v-54.08   c15.104-12.128,24-30.48,24-49.92C312,356.712,283.288,328,248,328z M248,408c-8.84,0-16-7.16-16-16s7.16-16,16-16s16,7.16,16,16   S256.84,408,248,408z"/>
	<path style="fill:#F9BA48;" d="M432,328c-35.288,0-64,28.712-64,64c0,19.448,8.896,37.8,24,49.92V496h80v-54.08   c15.104-12.128,24-30.48,24-49.92C496,356.712,467.288,328,432,328z M432,408c-8.84,0-16-7.16-16-16s7.16-16,16-16s16,7.16,16,16   S440.84,408,432,408z"/>
</g>
<g>
	<rect x="16" y="480" style="fill:#333333;" width="96" height="16"/>
	<path style="fill:#333333;" d="M72,414.528c9.288-3.312,16-12.112,16-22.528c0-13.232-10.768-24-24-24s-24,10.768-24,24   c0,10.416,6.712,19.216,16,22.528V448H16v16h96v-16H72V414.528z M64,384c4.416,0,8,3.584,8,8s-3.584,8-8,8s-8-3.584-8-8   S59.584,384,64,384z"/>
	<rect x="200" y="480" style="fill:#333333;" width="96" height="16"/>
	<path style="fill:#333333;" d="M256,414.528c9.288-3.312,16-12.112,16-22.528c0-13.232-10.768-24-24-24s-24,10.768-24,24   c0,10.416,6.712,19.216,16,22.528V448h-40v16h96v-16h-40V414.528z M248,384c4.416,0,8,3.584,8,8s-3.584,8-8,8s-8-3.584-8-8   S243.584,384,248,384z"/>
	<path style="fill:#333333;" d="M440,448v-33.472c9.288-3.312,16-12.112,16-22.528c0-13.232-10.768-24-24-24s-24,10.768-24,24   c0,10.416,6.712,19.216,16,22.528V448h-40v16h96v-16H440z M432,384c4.416,0,8,3.584,8,8s-3.584,8-8,8s-8-3.584-8-8   S427.584,384,432,384z"/>
	<rect x="384" y="480" style="fill:#333333;" width="96" height="16"/>
</g>
<g>
</g>
<g>
</g>
<g>
</g>
<g>
</g>
<g>
</g>
<g>
</g>
<g>
</g>
<g>
</g>
<g>
</g>
<g>
</g>
<g>
</g>
<g>
</g>
<g>
</g>
<g>
</g>
<g>
</g>
</svg>
