<?xml version="1.0" encoding="iso-8859-1"?>
<!-- Generator: Adobe Illustrator 19.0.0, SVG Export Plug-In . SVG Version: 6.00 Build 0)  -->
<svg xmlns="http://www.w3.org/2000/svg" xmlns:xlink="http://www.w3.org/1999/xlink" version="1.1" id="Layer_1" x="0px" y="0px" viewBox="0 0 496 496" style="enable-background:new 0 0 496 496;" xml:space="preserve">
<path style="fill:#333333;" d="M448,192.64V144H256v-40h-16v40H48v48.64C20.912,196.544,0,219.848,0,248c0,30.872,25.128,56,56,56  s56-25.128,56-56c0-28.152-20.912-51.456-48-55.36V160h80v224.64c-27.088,3.904-48,27.208-48,55.36c0,30.872,25.128,56,56,56  s56-25.128,56-56c0-28.152-20.912-51.456-48-55.36V160h80v32.64c-27.088,3.904-48,27.208-48,55.36s20.912,51.456,48,55.36V352h96  v32.64c-27.088,3.904-48,27.208-48,55.36c0,30.872,25.128,56,56,56s56-25.128,56-56c0-28.152-20.912-51.456-48-55.36V336h-96v-32.64  c27.088-3.904,48-27.208,48-55.36s-20.912-51.456-48-55.36V160h176v32.64c-27.088,3.904-48,27.208-48,55.36  c0,30.872,25.128,56,56,56s56-25.128,56-56C496,219.848,475.088,196.544,448,192.64z M96,248c0,22.056-17.944,40-40,40  s-40-17.944-40-40s17.944-40,40-40S96,225.944,96,248z M192,440c0,22.056-17.944,40-40,40s-40-17.944-40-40s17.944-40,40-40  S192,417.944,192,440z M384,440c0,22.056-17.944,40-40,40s-40-17.944-40-40s17.944-40,40-40S384,417.944,384,440z M288,248  c0,22.056-17.944,40-40,40s-40-17.944-40-40s17.944-40,40-40S288,225.944,288,248z M440,288c-22.056,0-40-17.944-40-40  s17.944-40,40-40s40,17.944,40,40S462.056,288,440,288z"/>
<path style="fill:#F9BA48;" d="M248,112c-30.872,0-56-25.128-56-56s25.128-56,56-56s56,25.128,56,56S278.872,112,248,112z"/>
<g>
</g>
<g>
</g>
<g>
</g>
<g>
</g>
<g>
</g>
<g>
</g>
<g>
</g>
<g>
</g>
<g>
</g>
<g>
</g>
<g>
</g>
<g>
</g>
<g>
</g>
<g>
</g>
<g>
</g>
</svg>
