<?xml version="1.0" encoding="iso-8859-1"?>
<!-- Generator: Adobe Illustrator 19.0.0, SVG Export Plug-In . SVG Version: 6.00 Build 0)  -->
<svg xmlns="http://www.w3.org/2000/svg" xmlns:xlink="http://www.w3.org/1999/xlink" version="1.1" id="Layer_1" x="0px" y="0px" viewBox="0 0 496 496" style="enable-background:new 0 0 496 496;" xml:space="preserve">
<path style="fill:#F9BA48;" d="M248,104c-39.704,0-72,32.296-72,72c0,23.992,12.152,46.496,32,59.8V264h80v-28.2  c19.848-13.304,32-35.808,32-59.8C320,136.296,287.704,104,248,104z M248,192c-8.84,0-16-7.16-16-16s7.16-16,16-16s16,7.16,16,16  S256.84,192,248,192z"/>
<g>
	<path style="fill:#333333;" d="M112,144c0-23.904-15.088-44.296-36.208-52.32C92.4,84.12,104,67.408,104,48   c0-26.472-21.528-48-48-48S8,21.528,8,48c0,19.408,11.6,36.12,28.208,43.68C15.088,99.704,0,120.096,0,144v24h112V144z M24,48   c0-17.648,14.352-32,32-32s32,14.352,32,32S73.648,80,56,80S24,65.648,24,48z M96,152H16v-8c0-22.056,17.944-40,40-40   s40,17.944,40,40V152z"/>
	<path style="fill:#333333;" d="M267.792,419.68C284.4,412.12,296,395.408,296,376c0-26.472-21.528-48-48-48s-48,21.528-48,48   c0,19.408,11.6,36.12,28.208,43.68C207.088,427.704,192,448.096,192,472v24h112v-24C304,448.096,288.912,427.704,267.792,419.68z    M216,376c0-17.648,14.352-32,32-32s32,14.352,32,32s-14.352,32-32,32S216,393.648,216,376z M288,480h-80v-8   c0-22.056,17.944-40,40-40s40,17.944,40,40V480z"/>
	<path style="fill:#333333;" d="M459.792,91.68C476.4,84.12,488,67.408,488,48c0-26.472-21.528-48-48-48s-48,21.528-48,48   c0,19.408,11.6,36.12,28.208,43.68C399.088,99.704,384,120.096,384,144v24h112v-24C496,120.096,480.912,99.704,459.792,91.68z    M408,48c0-17.648,14.352-32,32-32s32,14.352,32,32s-14.352,32-32,32S408,65.648,408,48z M480,152h-80v-8c0-22.056,17.944-40,40-40   s40,17.944,40,40V152z"/>
	
		<rect x="273.512" y="272.002" transform="matrix(-0.5635 0.8261 -0.8261 -0.5635 825.4747 123.8478)" style="fill:#333333;" width="213.013" height="16"/>
	
		<rect x="107.981" y="173.494" transform="matrix(-0.8262 0.5633 -0.5633 -0.8262 369.5378 446.0058)" style="fill:#333333;" width="15.999" height="213.007"/>
	<rect x="134.392" y="16" style="fill:#333333;" width="227.216" height="16"/>
	<path style="fill:#333333;" d="M284,248h-28v-49.472c9.288-3.312,16-12.112,16-22.528c0-13.232-10.768-24-24-24s-24,10.768-24,24   c0,10.416,6.712,19.216,16,22.528V248h-28c-11.032,0-20,8.968-20,20c0,7.12,3.76,13.328,9.368,16.88   c-0.848,2.216-1.368,4.6-1.368,7.12c0,11.032,8.968,20,20,20h56c11.032,0,20-8.968,20-20c0-2.52-0.52-4.904-1.368-7.12   C300.24,281.328,304,275.12,304,268C304,256.968,295.032,248,284,248z M248,168c4.416,0,8,3.584,8,8s-3.584,8-8,8s-8-3.584-8-8   S243.584,168,248,168z M212,264h72c2.2,0,4,1.8,4,4s-1.8,4-4,4h-8h-56h-8c-2.2,0-4-1.8-4-4S209.8,264,212,264z M276,296h-56   c-2.2,0-4-1.8-4-4s1.8-4,4-4h56c2.2,0,4,1.8,4,4S278.2,296,276,296z"/>
	<rect x="240" y="56" style="fill:#333333;" width="16" height="32"/>
	
		<rect x="188.003" y="69.938" transform="matrix(-0.8661 0.4999 -0.4999 -0.8661 408.7187 62.388)" style="fill:#333333;" width="16" height="32"/>
	
		<rect x="149.932" y="108.029" transform="matrix(-0.4999 0.8661 -0.8661 -0.4999 344.3025 49.2477)" style="fill:#333333;" width="16" height="32"/>
	<rect x="128" y="168" style="fill:#333333;" width="32" height="16"/>
	
		<rect x="141.933" y="220.008" transform="matrix(-0.8661 0.4999 -0.4999 -0.8661 408.6975 346.5334)" style="fill:#333333;" width="32" height="16"/>
	
		<rect x="330.069" y="211.996" transform="matrix(-0.4999 0.8661 -0.8661 -0.4999 704.5321 49.1731)" style="fill:#333333;" width="16" height="32"/>
	<rect x="336" y="168" style="fill:#333333;" width="32" height="16"/>
	
		<rect x="322.086" y="116" transform="matrix(-0.8661 0.4999 -0.4999 -0.8661 692.8859 62.3874)" style="fill:#333333;" width="32" height="16"/>
	
		<rect x="283.989" y="77.92" transform="matrix(-0.5 0.866 -0.866 -0.5 524.3945 -130.9149)" style="fill:#333333;" width="31.999" height="16"/>
</g>
<g>
</g>
<g>
</g>
<g>
</g>
<g>
</g>
<g>
</g>
<g>
</g>
<g>
</g>
<g>
</g>
<g>
</g>
<g>
</g>
<g>
</g>
<g>
</g>
<g>
</g>
<g>
</g>
<g>
</g>
</svg>
