<?xml version="1.0" encoding="iso-8859-1"?>
<!-- Generator: Adobe Illustrator 19.0.0, SVG Export Plug-In . SVG Version: 6.00 Build 0)  -->
<svg xmlns="http://www.w3.org/2000/svg" xmlns:xlink="http://www.w3.org/1999/xlink" version="1.1" id="Layer_1" x="0px" y="0px" viewBox="0 0 496 496" style="enable-background:new 0 0 496 496;" xml:space="preserve">
<g>
	<path style="fill:#333333;" d="M168,216h-16v8h-24v80h64v-80h-24V216z M152,240v16h-8v-16H152z M144,272h8v16h-8V272z M168,288v-16   h8v16H168z M176,240v16h-8v-16H176z"/>
	<path style="fill:#333333;" d="M312,128h96v16H88v-16h96v-16H72v48h16v152h-8v184h336V312h-8V160h16v-48H312V128z M96,328h96v152   h-8V344h-80v136h-8V328z M400,328v120H208V328H400z M168,440h-16v-24h16V440z M168,400h-16v-40h16V400z M136,400h-16v-40h16V400z    M120,416h16v24h-16V416z M120,456h48v24h-48V456z M208,480v-16h192v16H208z M104,312V208h288v104H104z M392,192H104v-32h16v16h16   v-16h24v16h16v-16h24v16h16v-16h24v16h16v-16h24v16h16v-16h24v16h16v-16h24v16h16v-16h16V192z"/>
	<path style="fill:#333333;" d="M256,216h-16v8h-24v80h64v-80h-24V216z M240,240v16h-8v-16H240z M232,272h8v16h-8V272z M256,288v-16   h8v16H256z M264,240v16h-8v-16H264z"/>
</g>
<path style="fill:#F9BA48;" d="M248,160c-44.112,0-80-35.888-80-80s35.888-80,80-80s80,35.888,80,80S292.112,160,248,160z"/>
<g>
	<path style="fill:#333333;" d="M344,224v-8h-16v8h-24v80h64v-80H344z M352,240v16h-8v-16H352z M328,240v16h-8v-16H328z M320,272h8   v16h-8V272z M344,288v-16h8v16H344z"/>
	<path style="fill:#333333;" d="M232,432h64v-80h-24v-8h-16v8h-24V432z M248,400h8v16h-8V400z M272,416v-16h8v16H272z M280,368v16   h-8v-16H280z M256,368v16h-8v-16H256z"/>
	<path style="fill:#333333;" d="M376,352h-24v-8h-16v8h-24v80h64V352z M360,368v16h-8v-16H360z M336,368v16h-8v-16H336z M328,400h8   v16h-8V400z M352,416v-16h8v16H352z"/>
	<polygon style="fill:#333333;" points="352,56 368,56 368,40 384,40 384,24 368,24 368,8 352,8 352,24 336,24 336,40 352,40  "/>
	<polygon style="fill:#333333;" points="440,64 424,64 424,48 408,48 408,64 392,64 392,80 408,80 408,96 424,96 424,80 440,80  "/>
	<polygon style="fill:#333333;" points="128,56 144,56 144,40 160,40 160,24 144,24 144,8 128,8 128,24 112,24 112,40 128,40  "/>
	<path style="fill:#333333;" d="M256,104h-16c-4.416,0-8-3.584-8-8h-16c0,13.232,10.768,24,24,24v16h16v-16   c13.232,0,24-10.768,24-24s-10.768-24-24-24h-16c-4.416,0-8-3.584-8-8s3.584-8,8-8h16c4.416,0,8,3.584,8,8h16   c0-13.232-10.768-24-24-24V24h-16v16c-13.232,0-24,10.768-24,24s10.768,24,24,24h16c4.416,0,8,3.584,8,8S260.416,104,256,104z"/>
	<polygon style="fill:#333333;" points="72,96 88,96 88,80 104,80 104,64 88,64 88,48 72,48 72,64 56,64 56,80 72,80  "/>
</g>
<g>
</g>
<g>
</g>
<g>
</g>
<g>
</g>
<g>
</g>
<g>
</g>
<g>
</g>
<g>
</g>
<g>
</g>
<g>
</g>
<g>
</g>
<g>
</g>
<g>
</g>
<g>
</g>
<g>
</g>
</svg>
