<?xml version="1.0" encoding="iso-8859-1"?>
<!-- Generator: Adobe Illustrator 19.0.0, SVG Export Plug-In . SVG Version: 6.00 Build 0)  -->
<svg xmlns="http://www.w3.org/2000/svg" xmlns:xlink="http://www.w3.org/1999/xlink" version="1.1" id="Layer_1" x="0px" y="0px" viewBox="0 0 496 496" style="enable-background:new 0 0 496 496;" xml:space="preserve">
<circle style="fill:#F9BA48;" cx="440" cy="136" r="40"/>
<path style="fill:#333333;" d="M320,120c13.232,0,24-10.768,24-24s-10.768-24-24-24s-24,10.768-24,24  c0,3.912,1.032,7.552,2.696,10.824l-32.04,35.6l-11.912-18.72l-13.504,8.592l14.296,22.472l-13.808,15.344  C238.76,168.776,235.472,168,232,168c-3.696,0-7.152,0.904-10.28,2.408l-40.12-40.12c1.496-3.136,2.4-6.592,2.4-10.288  c0-13.232-10.768-24-24-24s-24,10.768-24,24c0,4.152,1.152,8,3.016,11.416l-49.92,62.4C86.288,192.656,83.224,192,80,192  c-13.232,0-24,10.768-24,24s10.768,24,24,24s24-10.768,24-24c0-4.152-1.152-8-3.016-11.416l49.92-62.4  c2.808,1.16,5.872,1.816,9.096,1.816c3.696,0,7.152-0.904,10.28-2.408l40.12,40.12c-1.496,3.136-2.4,6.592-2.4,10.288  c0,13.232,10.768,24,24,24s24-10.768,24-24c0-3.912-1.032-7.56-2.696-10.824l11.16-12.4l32.784,51.52l13.504-8.592l-35.176-55.272  l34.688-38.536C313.248,119.224,316.528,120,320,120z M80,224c-4.416,0-8-3.584-8-8s3.584-8,8-8s8,3.584,8,8S84.416,224,80,224z   M152,120c0-4.416,3.584-8,8-8s8,3.584,8,8s-3.584,8-8,8S152,124.416,152,120z M232,200c-4.416,0-8-3.584-8-8s3.584-8,8-8  s8,3.584,8,8S236.416,200,232,200z M320,88c4.416,0,8,3.584,8,8s-3.584,8-8,8s-8-3.584-8-8S315.584,88,320,88z"/>
<path style="fill:#F9BA48;" d="M488,344V233.944c0-24.704-17.824-46.816-42.368-49.616c-10.608-1.208-20.608,1.048-29.032,5.784  C415.456,190.752,352,232,352,232l-36-36c-6.624-6.624-17.376-6.624-24,0l0,0c-6.624,6.624-6.624,17.376,0,24l41.072,41.072  c6.584,6.584,16.536,8.432,25.048,4.648L392,250.664V344H488z"/>
<g>
	<path style="fill:#333333;" d="M496,0H0v48h24v336h32.72c2.688,15.92,13.216,29.184,27.488,35.68C63.088,427.704,48,448.096,48,472   v24h112v-24c0-23.904-15.088-44.296-36.208-52.32c14.272-6.496,24.8-19.76,27.488-35.68h49.448   c2.688,15.92,13.216,29.184,27.488,35.68C207.088,427.704,192,448.096,192,472v24h112v-24c0-23.904-15.088-44.296-36.208-52.32   c14.272-6.496,24.8-19.76,27.488-35.68h49.448c2.688,15.92,13.216,29.184,27.488,35.68C351.088,427.704,336,448.096,336,472v24h112   v-24c0-23.904-15.088-44.296-36.208-52.32C428.4,412.12,440,395.408,440,376c0-26.472-21.528-48-48-48   c-23.736,0-43.448,17.336-47.28,40h-49.44c-3.824-22.664-23.536-40-47.28-40s-43.448,17.336-47.28,40h-49.44   c-3.824-22.664-23.536-40-47.28-40s-43.448,17.336-47.28,40H40V48h416v40h16V48h24V0z M432,472v8h-80v-8c0-22.056,17.944-40,40-40   S432,449.944,432,472z M392,344c17.648,0,32,14.352,32,32s-14.352,32-32,32s-32-14.352-32-32S374.352,344,392,344z M288,472v8h-80   v-8c0-22.056,17.944-40,40-40S288,449.944,288,472z M248,344c17.648,0,32,14.352,32,32s-14.352,32-32,32s-32-14.352-32-32   S230.352,344,248,344z M144,472v8H64v-8c0-22.056,17.944-40,40-40S144,449.944,144,472z M104,344c17.648,0,32,14.352,32,32   s-14.352,32-32,32s-32-14.352-32-32S86.352,344,104,344z M480,32h-8H24h-8V16h464V32z"/>
	<polygon style="fill:#333333;" points="458.344,186.344 440,204.688 421.656,186.344 410.344,197.656 432,219.312 432,280 448,280    448,219.312 469.656,197.656  "/>
	<rect x="128" y="256" style="fill:#333333;" width="128" height="16"/>
	<rect x="152" y="288" style="fill:#333333;" width="104" height="16"/>
</g>
<g>
</g>
<g>
</g>
<g>
</g>
<g>
</g>
<g>
</g>
<g>
</g>
<g>
</g>
<g>
</g>
<g>
</g>
<g>
</g>
<g>
</g>
<g>
</g>
<g>
</g>
<g>
</g>
<g>
</g>
</svg>
