<?xml version="1.0" encoding="iso-8859-1"?>
<!-- Generator: Adobe Illustrator 19.0.0, SVG Export Plug-In . SVG Version: 6.00 Build 0)  -->
<svg xmlns="http://www.w3.org/2000/svg" xmlns:xlink="http://www.w3.org/1999/xlink" version="1.1" id="Layer_1" x="0px" y="0px" viewBox="0 0 489.76 489.76" style="enable-background:new 0 0 489.76 489.76;" xml:space="preserve">
<path style="fill:#333333;" d="M314.616,200.784c19.448-0.52,35.144-18.176,35.144-39.904c0-11.776-4.688-22.272-12-29.592V120.88  c0-66.168-53.832-120-120-120s-120,53.832-120,120v15.168c-4.928,6.848-8,15.408-8,24.832c0,20.144,13.52,36.696,30.984,39.44  c7.704,21.32,21.592,39.896,39.912,53.536l-34.248,26.8l-44.928,7.808c-32.592,5.672-58.856,31.28-65.344,63.72L0,432.88h172.168  h38.656h14.936h38.648h41.352v-16h-29.264l48.912-64.736l-19.632-19.64l19.88-6.344l-7.688-27.736l13.424,2.336l2.736-15.768  l-23.64-4.112l-35.08-27.456C293.32,239.936,306.952,221.696,314.616,200.784z M333.76,160.88c0,10.872-6.088,19.968-14.368,22.912  c1.512-7.512,2.368-15.24,2.368-23.12v-21.76C328.816,142.624,333.76,151.064,333.76,160.88z M105.76,160.88  c0-7.808,3.168-14.696,8-19.08v18.872c0,7.088,0.712,14.04,1.936,20.832C109.784,177.328,105.76,169.696,105.76,160.88z   M113.76,120.88c0-57.344,46.656-104,104-104s104,46.656,104,104h-8c-32.336,0-49.064-20.152-49.736-20.976l-3.752-4.704l-5.56,2.28  c-0.568,0.232-57.8,23.4-132.952,23.4H113.76z M19.52,416.88l12.312-61.56c5.2-26.016,26.264-46.544,52.4-51.096l34.448-5.992  l-7.752,27.928l19.888,6.352l-19.632,19.632l48.904,64.736H19.52z M180.144,416.88l-47.808-63.264l28.368-28.368l-30.248-9.648  l6.32-22.736l27.44-21.48l36.376,145.496H180.144z M218.448,416.88h-1.376l-37.96-151.832c2.064,1.008,4.08,2.096,6.224,2.984  c10.304,4.304,21.36,6.448,32.424,6.448c11.056,0,22.12-2.152,32.424-6.448c2.144-0.896,4.16-1.976,6.224-2.984L218.448,416.88z   M299.816,292.864l6.312,22.736l-30.24,9.656l28.368,28.36L256.44,416.88h-21.504l36.552-146.2L299.816,292.864z M244.024,253.272  c-16.688,6.952-35.84,6.952-52.528,0c-37.504-15.624-61.736-51.976-61.736-92.6V136.8c62.232-1.264,110.408-16.896,125.864-22.536  c7.28,6.984,24.096,19.984,50.136,22.272v24.136C305.76,201.296,281.528,237.648,244.024,253.272z"/>
<g>
	<path style="fill:#F9BA48;" d="M432.072,304.88H355.44c-33.936,14.8-57.68,48.608-57.68,88c0,53.016,42.984,96,96,96   s96-42.984,96-96C489.76,353.488,466.016,319.68,432.072,304.88z"/>
	<path style="fill:#F9BA48;" d="M437.76,208.88c-6.624,0-12,5.376-12,12v8c0,6.624-5.376,12-12,12s-12-5.376-12-12v-8   c0-6.624-5.376-12-12-12s-12,5.376-12,12v8c0,6.624-5.376,12-12,12s-12-5.376-12-12v-8c0-6.624-5.376-12-12-12s-12,5.376-12,12   v19.72c0,10.616,3.144,20.992,9.032,29.824l6.968,10.456h88l6.968-10.456c5.888-8.832,9.032-19.208,9.032-29.824v-19.72   C449.76,214.256,444.384,208.88,437.76,208.88z"/>
</g>
<g>
	<path style="fill:#333333;" d="M445.76,312.88h-104c-11.032,0-20-8.968-20-20s8.968-20,20-20h104c11.032,0,20,8.968,20,20   S456.792,312.88,445.76,312.88z M341.76,288.88c-2.2,0-4,1.8-4,4s1.8,4,4,4h104c2.2,0,4-1.8,4-4s-1.8-4-4-4H341.76z"/>
	<path style="fill:#333333;" d="M433.76,376.88v-4c0-15.44-12.56-28-28-28h-4v-16h-16v16h-4c-15.44,0-28,12.56-28,28s12.56,28,28,28   h24c6.616,0,12,5.384,12,12s-5.384,12-12,12h-24c-6.616,0-12-5.384-12-12v-4h-16v4c0,15.44,12.56,28,28,28h4v16h16v-16h4   c15.44,0,28-12.56,28-28s-12.56-28-28-28h-24c-6.616,0-12-5.384-12-12s5.384-12,12-12h24c6.616,0,12,5.384,12,12v4H433.76z"/>
</g>
<g>
</g>
<g>
</g>
<g>
</g>
<g>
</g>
<g>
</g>
<g>
</g>
<g>
</g>
<g>
</g>
<g>
</g>
<g>
</g>
<g>
</g>
<g>
</g>
<g>
</g>
<g>
</g>
<g>
</g>
</svg>
