<?xml version="1.0" encoding="iso-8859-1"?>
<!-- Generator: Adobe Illustrator 19.0.0, SVG Export Plug-In . SVG Version: 6.00 Build 0)  -->
<svg xmlns="http://www.w3.org/2000/svg" xmlns:xlink="http://www.w3.org/1999/xlink" version="1.1" id="Layer_1" x="0px" y="0px" viewBox="0 0 496 496" style="enable-background:new 0 0 496 496;" xml:space="preserve">
<path style="fill:#F9BA48;" d="M165.296,376c-9.448-42.112-42.72-72-81.296-72c-46.32,0-84,43.064-84,96s37.68,96,84,96  c38.576,0,71.848-29.888,81.296-72H376v48h48v-24h8v24h48v-48h16v-48H165.296z M120,420c0,19.88-16.12,36-36,36s-36-16.12-36-36  c0-7.4,2.248-14.28,6.08-20c-3.832-5.72-6.08-12.6-6.08-20c0-19.88,16.12-36,36-36s36,16.12,36,36c0,7.4-2.248,14.28-6.08,20  C117.752,405.72,120,412.6,120,420z"/>
<g>
	<path style="fill:#333333;" d="M84,464c-24.256,0-44-19.744-44-44c0-7,1.648-13.832,4.816-20C41.648,393.832,40,387,40,380   c0-24.256,19.744-44,44-44s44,19.744,44,44c0,7-1.648,13.832-4.816,20c3.168,6.168,4.816,13,4.816,20   C128,444.256,108.256,464,84,464z M84,352c-15.44,0-28,12.56-28,28c0,5.552,1.632,10.928,4.728,15.544L63.704,400l-2.976,4.456   C57.632,409.072,56,414.448,56,420c0,15.44,12.56,28,28,28s28-12.56,28-28c0-5.552-1.632-10.928-4.728-15.544L104.296,400   l2.976-4.456C110.368,390.928,112,385.552,112,380C112,364.56,99.44,352,84,352z"/>
	<path style="fill:#333333;" d="M359.264,2.144c-7.232-2.8-15.264-2.264-22.056,1.44c-6.808,3.696-11.6,10.168-13.184,17.752   L313.152,73.64L268.8,86.312C280.432,77.544,288,63.656,288,48c0-26.472-21.528-48-48-48s-48,21.528-48,48   c0,15.656,7.568,29.544,19.2,38.312L166.856,73.64l-10.88-52.312C154.4,13.752,149.6,7.28,142.8,3.584   c-6.8-3.712-14.832-4.24-22.056-1.44c-11.888,4.576-18.776,17-16.368,29.52l11.856,61.56c2.944,15.296,14.56,27.832,29.6,31.928   L192,137.744v101.672l-15.408,104.76c-1.176,7.992,1.176,16.088,6.464,22.2S196,376,204.088,376c13.68,0,25.504-10.2,27.496-23.744   l8.416-57.28l8.424,57.28C250.416,365.8,262.232,376,275.912,376c8.088,0,15.752-3.504,21.032-9.624s7.64-14.208,6.464-22.2   L288,239.416V137.744l46.168-12.584c15.04-4.104,26.656-16.632,29.592-31.928l11.872-61.568   C378.032,19.144,371.152,6.728,359.264,2.144z M240,16c17.648,0,32,14.352,32,32s-14.352,32-32,32s-32-14.352-32-32   S222.352,16,240,16z M359.92,28.632l-11.872,61.56c-1.8,9.352-8.896,17.016-18.088,19.52L272,125.52V240l15.576,106.496   c0.504,3.44-0.472,6.784-2.744,9.416c-2.24,2.592-5.488,4.088-8.92,4.088c-5.808,0-10.824-4.328-11.664-10.072L248.088,240H231.92   l-16.168,109.928c-0.848,5.744-5.864,10.072-11.664,10.072c-3.432,0-6.68-1.496-8.92-4.088c-2.272-2.632-3.248-5.976-2.744-9.416   L207.92,241.16L208,125.52l-57.96-15.808c-9.184-2.504-16.288-10.168-18.096-19.52L120.088,28.64   c-0.944-4.912,1.752-9.784,6.416-11.576c2.856-1.104,5.944-0.904,8.64,0.56c2.664,1.456,4.544,3.992,5.168,6.952l12.84,61.792   l60.656,17.328L264,104l62.848-17.632l12.832-61.784c0.624-2.968,2.504-5.504,5.168-6.96c2.688-1.472,5.776-1.664,8.64-0.56h0.008   C358.168,18.856,360.856,23.728,359.92,28.632z"/>
</g>
<g>
</g>
<g>
</g>
<g>
</g>
<g>
</g>
<g>
</g>
<g>
</g>
<g>
</g>
<g>
</g>
<g>
</g>
<g>
</g>
<g>
</g>
<g>
</g>
<g>
</g>
<g>
</g>
<g>
</g>
</svg>
