<?xml version="1.0" encoding="iso-8859-1"?>
<!-- Generator: Adobe Illustrator 19.0.0, SVG Export Plug-In . SVG Version: 6.00 Build 0)  -->
<svg xmlns="http://www.w3.org/2000/svg" xmlns:xlink="http://www.w3.org/1999/xlink" version="1.1" id="Layer_1" x="0px" y="0px" viewBox="0 0 499.68 499.68" style="enable-background:new 0 0 499.68 499.68;" xml:space="preserve">
<g>
	<path style="fill:#F9BA48;" d="M331.68,497.84h-152v-184h152V497.84z"/>
	<path style="fill:#F9BA48;" d="M155.68,497.84h-152v-104h152V497.84z"/>
	<path style="fill:#F9BA48;" d="M499.68,497.84h-144v-264h144V497.84z"/>
</g>
<g>
	<path style="fill:#333333;" d="M390.736,133.088c-7.448-29.792-35.928-48.768-66.312-44.072l-57.96,8.912l-44.008,11.568   l-1.04-2.08l35.728-35.728c7.432-7.432,8.592-19.176,2.768-27.936c-3.696-5.536-9.616-9.096-16.248-9.752   c-6.584-0.624-13.128,1.672-17.832,6.376l-38.456,38.456c-9.288-1.68-18.824-0.376-27.272,3.848   c-10.464,5.224-18.248,14.216-21.952,25.312c-2.616,7.848-2.84,16.064-0.968,23.92l-21.24,5.584L43.064,113.2L0,134.736   l72.176,108.256l51.504-13.2v69.496l60.664-10.112l62.544-90.976l123.992-31.8C385.496,162.664,394.392,147.712,390.736,133.088z    M153.328,113.056c2.344-7.04,7.296-12.744,13.928-16.064c6.256-3.144,13.464-3.744,20.328-1.688l4.568,1.368l44.984-44.984   c1.776-1.768,3.856-1.848,4.952-1.76c1.08,0.112,3.104,0.6,4.504,2.696c1.616,2.44,1.296,5.696-0.768,7.76l-43.88,43.88   l4.696,9.392l-53.992,14.192C151.56,122.984,151.712,117.912,153.328,113.056z M366.912,150.904l-106.24,27.248l13.6-19.776   l-13.184-9.064l-86.072,125.192l-35.336,5.888V185.84h-16v27.432L79.184,224.68L23.36,140.944l20.936-10.464l71.12,23.704   l153.896-40.496l57.544-8.848c22.152-3.4,42.92,10.416,48.36,32.136C376.744,143.08,373.024,149.344,366.912,150.904z"/>
	<path style="fill:#333333;" d="M147.68,81.84c22.056,0,40-17.944,40-40s-17.944-40-40-40s-40,17.944-40,40   S125.624,81.84,147.68,81.84z M147.68,17.84c13.232,0,24,10.768,24,24s-10.768,24-24,24s-24-10.768-24-24   S134.448,17.84,147.68,17.84z"/>
</g>
<g>
</g>
<g>
</g>
<g>
</g>
<g>
</g>
<g>
</g>
<g>
</g>
<g>
</g>
<g>
</g>
<g>
</g>
<g>
</g>
<g>
</g>
<g>
</g>
<g>
</g>
<g>
</g>
<g>
</g>
</svg>
