<?xml version="1.0" encoding="iso-8859-1"?>
<!-- Generator: Adobe Illustrator 19.0.0, SVG Export Plug-In . SVG Version: 6.00 Build 0)  -->
<svg xmlns="http://www.w3.org/2000/svg" xmlns:xlink="http://www.w3.org/1999/xlink" version="1.1" id="Layer_1" x="0px" y="0px" viewBox="0 0 496 496" style="enable-background:new 0 0 496 496;" xml:space="preserve">
<g>
	<path style="fill:#333333;" d="M112,135.972c0-22.056-17.944-40-40-40s-40,17.944-40,40s17.944,40,40,40S112,158.028,112,135.972z    M72,159.972c-13.232,0-24-10.768-24-24s10.768-24,24-24s24,10.768,24,24S85.232,159.972,72,159.972z"/>
	<path style="fill:#333333;" d="M128,295.972c0,4.416-3.584,8-8,8s-8-3.584-8-8v-8v-72H96v72v8v144c0,4.416-3.584,8-8,8   s-8-3.584-8-8v-112H64v112c0,4.416-3.584,8-8,8s-8-3.584-8-8v-144v-8v-72H32v72v8c0,4.416-3.584,8-8,8s-8-3.584-8-8v-75.616   c0-15.648,12.736-28.384,28.384-28.384h55.232v-16H72H44.384C19.904,175.972,0,195.876,0,220.356v75.616c0,13.232,10.768,24,24,24   c2.816,0,5.488-0.576,8-1.472v121.472c0,13.232,10.768,24,24,24c6.168,0,11.744-2.408,16-6.24c4.256,3.84,9.832,6.24,16,6.24   c13.232,0,24-10.768,24-24V318.5c2.512,0.896,5.184,1.472,8,1.472c13.232,0,24-10.768,24-24v-45.248h-16V295.972z"/>
	<path style="fill:#333333;" d="M464,135.972c0-22.056-17.944-40-40-40s-40,17.944-40,40s17.944,40,40,40S464,158.028,464,135.972z    M424,159.972c-13.232,0-24-10.768-24-24s10.768-24,24-24s24,10.768,24,24S437.232,159.972,424,159.972z"/>
	<path style="fill:#333333;" d="M472,319.972c13.232,0,24-10.768,24-24v-75.616c0-24.48-19.904-44.384-44.384-44.384H424h-27.616   c-24.48,0-44.384,19.904-44.384,44.384v22.56l-8.248-8.248L332.44,245.98l28.088,28.088L338.096,296.5l-28.088-28.088   l-11.312,11.312l5.304,5.304v10.944c0,4.416-3.584,8-8,8s-8-3.584-8-8v-8h-16v8v144c0,4.416-3.584,8-8,8s-8-3.584-8-8v-112h-16v112   c0,4.416-3.584,8-8,8s-8-3.584-8-8v-152h-16v8c0,4.416-3.584,8-8,8s-8-3.584-8-8v-8h-16v8c0,13.232,10.768,24,24,24   c2.816,0,5.488-0.576,8-1.472v121.472c0,13.232,10.768,24,24,24c6.168,0,11.744-2.408,16-6.24c4.256,3.84,9.832,6.24,16,6.24   c13.232,0,24-10.768,24-24V318.5c2.512,0.896,5.184,1.472,8,1.472c11.664,0,21.384-8.368,23.536-19.408l7.248,7.248l-16.832,16.832   l11.312,11.312l11.208-11.208L384,376.276v63.696c0,13.232,10.768,24,24,24c6.168,0,11.744-2.408,16-6.24   c4.256,3.84,9.832,6.24,16,6.24c13.232,0,24-10.768,24-24v-8.816c7.456-1.48,14.568-5.088,20.336-10.856   c7.52-7.504,11.664-17.504,11.664-28.144s-4.144-20.632-11.664-28.152L464,343.676V318.5   C466.512,319.396,469.184,319.972,472,319.972z M408,447.972c-4.416,0-8-3.584-8-8v-47.704l16,16v31.704   C416,444.388,412.416,447.972,408,447.972z M440,447.972c-4.416,0-8-3.584-8-8V423.54c4.84,3.736,10.272,6.312,16,7.504v8.928   C448,444.388,444.416,447.972,440,447.972z M480,392.156c0,6.36-2.48,12.336-6.976,16.832c-9.28,9.28-24.392,9.28-33.672,0   l-95.568-95.552l33.68-33.68l95.56,95.568C477.52,379.82,480,385.804,480,392.156z M400,279.668v-63.696h-16v34.616l-12.168,12.168   l-3.832-3.84v-38.56c0-15.648,12.736-28.384,28.384-28.384h55.232c15.648,0,28.384,12.736,28.384,28.384v75.616   c0,4.416-3.584,8-8,8s-8-3.584-8-8v-80h-16v80v31.704L400,279.668z"/>
</g>
<path style="fill:#F9BA48;" d="M326.88,71.58c-52.736-52.736-138.528-52.736-191.264,0s-52.736,138.536,0,191.272  c26.368,26.368,60.992,39.544,95.632,39.544c34.632,0,69.264-13.176,95.632-39.544C379.608,210.124,379.608,124.316,326.88,71.58z   M293.104,229.076c-34.168,34.16-89.552,34.16-123.72,0s-34.168-89.552,0-123.72c34.16-34.168,89.552-34.168,123.72,0  S327.272,194.916,293.104,229.076z"/>
<g>
	<path style="fill:#333333;" d="M298.768,234.732c37.224-37.224,37.224-97.8,0-135.024c-37.232-37.232-97.8-37.232-135.032,0   c-37.224,37.224-37.224,97.8,0,135.024c18.616,18.616,43.064,27.92,67.512,27.92S280.152,253.348,298.768,234.732z M175.048,111.02   c15.496-15.496,35.848-23.24,56.2-23.24s40.712,7.752,56.2,23.24c30.984,30.992,30.984,81.408,0,112.4   c-30.984,30.984-81.424,30.984-112.408,0C144.064,192.428,144.064,142.012,175.048,111.02z"/>
	<path style="fill:#333333;" d="M240,231.972v-8c17.648,0,32-14.352,32-32s-14.352-32-32-32h-16c-8.824,0-16-7.176-16-16   s7.176-16,16-16h16c8.824,0,16,7.176,16,16v8h16v-8c0-17.648-14.352-32-32-32v-8h-16v8c-17.648,0-32,14.352-32,32s14.352,32,32,32   h16c8.824,0,16,7.176,16,16s-7.176,16-16,16h-16c-8.824,0-16-7.176-16-16v-8h-16v8c0,17.648,14.352,32,32,32v8H240z"/>
</g>
<g>
</g>
<g>
</g>
<g>
</g>
<g>
</g>
<g>
</g>
<g>
</g>
<g>
</g>
<g>
</g>
<g>
</g>
<g>
</g>
<g>
</g>
<g>
</g>
<g>
</g>
<g>
</g>
<g>
</g>
</svg>
