<?xml version="1.0" encoding="iso-8859-1"?>
<!-- Generator: Adobe Illustrator 19.0.0, SVG Export Plug-In . SVG Version: 6.00 Build 0)  -->
<svg xmlns="http://www.w3.org/2000/svg" xmlns:xlink="http://www.w3.org/1999/xlink" version="1.1" id="Layer_1" x="0px" y="0px" viewBox="0 0 496 496" style="enable-background:new 0 0 496 496;" xml:space="preserve">
<g>
	<path style="fill:#F9BA48;" d="M216,342.832l-8.84-0.936c-55.968-5.912-82.368-22.464-83.472-23.16l-5.48-3.504L186.488,136H216   V342.832z"/>
	<path style="fill:#F9BA48;" d="M280,342.832V136h29.512l68.272,179.232l-5.48,3.504c-1.104,0.696-27.504,17.24-83.472,23.16   L280,342.832z"/>
</g>
<g>
	<path style="fill:#333333;" d="M296,48c0-26.472-21.528-48-48-48s-48,21.528-48,48s21.528,48,48,48S296,74.472,296,48z M248,80   c-17.648,0-32-14.352-32-32s14.352-32,32-32s32,14.352,32,32S265.648,80,248,80z"/>
	<path style="fill:#333333;" d="M447.696,104.584C436.424,84.648,415.04,72,392,72c-8.352,0-16.424,1.768-24,4.856V52   c0-15.44-12.56-28-28-28s-28,12.56-28,28v44h-64h-64V52c0-15.44-12.56-28-28-28s-28,12.56-28,28v72c0,15.44,12.56,28,28,28h44v204   c0,15.44,12.56,28,28,28c7.832,0,14.912-3.224,20-8.424c5.088,5.2,12.168,8.424,20,8.424c15.44,0,28-12.56,28-28V152h44   c15.44,0,28-12.56,28-28V94.608C375.28,90.352,383.456,88,392,88c18.44,0,35.464,10.816,43.368,27.552l2.04,4.312l4.768,0.256   C463.384,121.256,480,138.784,480,160c0,22.056-17.944,40-40,40H333.896l6.096,16H440c30.872,0,56-25.128,56-56   C496,131.848,475.136,108.352,447.696,104.584z M340,40c6.616,0,12,5.384,12,12v12h-24V52C328,45.384,333.384,40,340,40z    M252.688,112L248,116.688L243.312,112H252.688z M156,40c6.616,0,12,5.384,12,12v12h-24V52C144,45.384,149.384,40,156,40z    M280,227.472l-32,19.2l-32-19.2V216h64V227.472z M228,368c-6.616,0-12-5.384-12-12V246.128l24,14.4V356   C240,362.616,234.616,368,228,368z M268,368c-6.616,0-12-5.384-12-12v-95.472l24-14.4V356C280,362.616,274.616,368,268,368z    M340,136h-60v64h-64v-64h-60c-6.616,0-12-5.384-12-12V80h24v32h40c0,4.416,3.584,8,8,8c3.44,0,6.312-2.2,7.44-5.24L248,139.32   l24.56-24.56c1.128,3.04,4,5.24,7.44,5.24c4.416,0,8-3.584,8-8h40V80h24v44C352,130.616,346.616,136,340,136z"/>
	<path style="fill:#333333;" d="M167.696,384.584C156.424,364.648,135.04,352,112,352c-22.832,0-44.008,12.4-55.368,32.008   C56.424,384,56.208,384,56,384c-30.872,0-56,25.128-56,56s25.128,56,56,56h104c30.872,0,56-25.128,56-56   C216,411.848,195.136,388.352,167.696,384.584z M160,480H56c-22.056,0-40-17.944-40-40s17.944-40,40-40   c1.496,0,2.968,0.104,4.424,0.264l5.704,0.632l2.432-5.192C76.44,378.872,93.496,368,112,368c18.44,0,35.464,10.816,43.368,27.552   l2.04,4.312l4.768,0.256C183.384,401.256,200,418.784,200,440C200,462.056,182.056,480,160,480z"/>
</g>
<g>
</g>
<g>
</g>
<g>
</g>
<g>
</g>
<g>
</g>
<g>
</g>
<g>
</g>
<g>
</g>
<g>
</g>
<g>
</g>
<g>
</g>
<g>
</g>
<g>
</g>
<g>
</g>
<g>
</g>
</svg>
