<?xml version="1.0" encoding="iso-8859-1"?>
<!-- Generator: Adobe Illustrator 19.0.0, SVG Export Plug-In . SVG Version: 6.00 Build 0)  -->
<svg xmlns="http://www.w3.org/2000/svg" xmlns:xlink="http://www.w3.org/1999/xlink" version="1.1" id="Layer_1" x="0px" y="0px" viewBox="0 0 502.624 502.624" style="enable-background:new 0 0 502.624 502.624;" xml:space="preserve">
<circle style="fill:#F9BA48;" cx="251.312" cy="251.312" r="232"/>
<g>
	<path style="fill:#333333;" d="M44,423.312l-44,44l35.312,35.312l44-44l26.112,26.12l10.944-98.488L17.88,397.2L44,423.312z    M98.256,404.368L93.2,449.88L79.312,436l-44,44l-12.688-12.688l44-44l-13.88-13.888L98.256,404.368z"/>
	<path style="fill:#333333;" d="M484.744,397.2l-98.488-10.944l10.944,98.488l26.112-26.12l44,44l35.312-35.312l-44-44   L484.744,397.2z M480,467.312L467.312,480l-44-44l-13.888,13.88l-5.056-45.512l45.512,5.056L436,423.312L480,467.312z"/>
	<path style="fill:#333333;" d="M17.88,105.424l98.488,10.944L105.424,17.88L79.312,44l-44-44L0,35.312l44,44L17.88,105.424z    M22.624,35.312l12.688-12.688l44,44L93.2,52.744l5.056,45.512L52.744,93.2l13.88-13.888L22.624,35.312z"/>
	<path style="fill:#333333;" d="M458.624,79.312l44-44L467.312,0l-44,44L397.2,17.88l-10.944,98.488l98.488-10.944L458.624,79.312z    M404.368,98.256l5.056-45.512l13.888,13.88l44-44L480,35.312l-44,44L449.88,93.2L404.368,98.256z"/>
	<path style="fill:#333333;" d="M203.312,315.312c0-17.648-14.352-32-32-32s-32,14.352-32,32s14.352,32,32,32   S203.312,332.96,203.312,315.312z M171.312,331.312c-8.824,0-16-7.176-16-16s7.176-16,16-16s16,7.176,16,16   S180.136,331.312,171.312,331.312z"/>
	<path style="fill:#333333;" d="M171.312,347.312c-22.056,0-40,17.944-40,40v24h80v-24   C211.312,365.256,193.368,347.312,171.312,347.312z M195.312,395.312h-48v-8c0-13.232,10.768-24,24-24s24,10.768,24,24V395.312z"/>
	<polygon style="fill:#333333;" points="483.312,259.312 483.312,243.312 259.312,243.312 259.312,19.312 243.312,19.312    243.312,243.312 19.312,243.312 19.312,259.312 243.312,259.312 243.312,483.312 259.312,483.312 259.312,259.312  "/>
	<path style="fill:#333333;" d="M363.312,315.312c0-17.648-14.352-32-32-32s-32,14.352-32,32s14.352,32,32,32   S363.312,332.96,363.312,315.312z M331.312,331.312c-8.824,0-16-7.176-16-16s7.176-16,16-16s16,7.176,16,16   S340.136,331.312,331.312,331.312z"/>
	<path style="fill:#333333;" d="M331.312,347.312c-22.056,0-40,17.944-40,40v24h80v-24   C371.312,365.256,353.368,347.312,331.312,347.312z M355.312,395.312h-48v-8c0-13.232,10.768-24,24-24s24,10.768,24,24V395.312z"/>
	<path style="fill:#333333;" d="M203.312,123.312c0-17.648-14.352-32-32-32s-32,14.352-32,32s14.352,32,32,32   S203.312,140.96,203.312,123.312z M171.312,139.312c-8.824,0-16-7.176-16-16s7.176-16,16-16s16,7.176,16,16   S180.136,139.312,171.312,139.312z"/>
	<path style="fill:#333333;" d="M211.312,195.312c0-22.056-17.944-40-40-40s-40,17.944-40,40v24h80V195.312z M195.312,203.312h-48   v-8c0-13.232,10.768-24,24-24s24,10.768,24,24V203.312z"/>
	<path style="fill:#333333;" d="M363.312,123.312c0-17.648-14.352-32-32-32s-32,14.352-32,32s14.352,32,32,32   S363.312,140.96,363.312,123.312z M331.312,139.312c-8.824,0-16-7.176-16-16s7.176-16,16-16s16,7.176,16,16   S340.136,139.312,331.312,139.312z"/>
	<path style="fill:#333333;" d="M371.312,195.312c0-22.056-17.944-40-40-40s-40,17.944-40,40v24h80V195.312z M355.312,203.312h-48   v-8c0-13.232,10.768-24,24-24s24,10.768,24,24V203.312z"/>
</g>
<g>
</g>
<g>
</g>
<g>
</g>
<g>
</g>
<g>
</g>
<g>
</g>
<g>
</g>
<g>
</g>
<g>
</g>
<g>
</g>
<g>
</g>
<g>
</g>
<g>
</g>
<g>
</g>
<g>
</g>
</svg>
