<?xml version="1.0" encoding="iso-8859-1"?>
<!-- Generator: Adobe Illustrator 19.0.0, SVG Export Plug-In . SVG Version: 6.00 Build 0)  -->
<svg xmlns="http://www.w3.org/2000/svg" xmlns:xlink="http://www.w3.org/1999/xlink" version="1.1" id="Layer_1" x="0px" y="0px" viewBox="0 0 496 496" style="enable-background:new 0 0 496 496;" xml:space="preserve">
<path style="fill:#F9BA48;" d="M24,40v344h40.808C64.28,381.416,64,378.744,64,376c0-22.088,17.912-40,40-40s40,17.912,40,40  c0,2.744-0.28,5.416-0.808,8h65.616c-0.528-2.584-0.808-5.256-0.808-8c0-22.088,17.912-40,40-40s40,17.912,40,40  c0,2.744-0.28,5.416-0.808,8h65.616c-0.528-2.584-0.808-5.256-0.808-8c0-22.088,17.912-40,40-40s40,17.912,40,40  c0,2.744-0.28,5.416-0.808,8H472V40H24z"/>
<g>
	<path style="fill:#333333;" d="M290.344,109.656l13.624,13.624c-20.992,5.824-60.128,21.688-94.184,63.68   C164.04,243.36,160.152,308.824,160,311.584l15.984,0.832c0.032-0.624,3.728-62.984,46.216-115.376   c31.624-38.992,68.496-53.416,86.904-58.488l-4.872,19.512l15.512,3.872l9.104-36.392l-27.2-27.2L290.344,109.656z"/>
	<path style="fill:#333333;" d="M380,144c15.44,0,28-12.56,28-28s-12.56-28-28-28s-28,12.56-28,28S364.56,144,380,144z M380,104   c6.616,0,12,5.384,12,12s-5.384,12-12,12s-12-5.384-12-12S373.384,104,380,104z"/>
	<polygon style="fill:#333333;" points="157.656,133.656 172,119.312 186.344,133.656 197.656,122.344 183.312,108 197.656,93.656    186.344,82.344 172,96.688 157.656,82.344 146.344,93.656 160.688,108 146.344,122.344  "/>
	<polygon style="fill:#333333;" points="77.656,229.656 92,215.312 106.344,229.656 117.656,218.344 103.312,204 117.656,189.656    106.344,178.344 92,192.688 77.656,178.344 66.344,189.656 80.688,204 66.344,218.344  "/>
	<polygon style="fill:#333333;" points="314.344,226.344 300,240.688 285.656,226.344 274.344,237.656 288.688,252 274.344,266.344    285.656,277.656 300,263.312 314.344,277.656 325.656,266.344 311.312,252 325.656,237.656  "/>
	<path style="fill:#333333;" d="M0,0v48h496V0H0z M480,32H16V16h464V32z"/>
	<path style="fill:#333333;" d="M123.792,419.68C140.4,412.12,152,395.408,152,376c0-26.472-21.528-48-48-48s-48,21.528-48,48   c0,19.408,11.6,36.12,28.208,43.68C63.088,427.704,48,448.096,48,472v24h112v-24C160,448.096,144.912,427.704,123.792,419.68z    M72,376c0-17.648,14.352-32,32-32s32,14.352,32,32s-14.352,32-32,32S72,393.648,72,376z M144,480H64v-8c0-22.056,17.944-40,40-40   s40,17.944,40,40V480z"/>
	<path style="fill:#333333;" d="M267.792,419.68C284.4,412.12,296,395.408,296,376c0-26.472-21.528-48-48-48s-48,21.528-48,48   c0,19.408,11.6,36.12,28.208,43.68C207.088,427.704,192,448.096,192,472v24h112v-24C304,448.096,288.912,427.704,267.792,419.68z    M216,376c0-17.648,14.352-32,32-32s32,14.352,32,32s-14.352,32-32,32S216,393.648,216,376z M288,480h-80v-8   c0-22.056,17.944-40,40-40s40,17.944,40,40V480z"/>
	<path style="fill:#333333;" d="M411.792,419.68C428.4,412.12,440,395.408,440,376c0-26.472-21.528-48-48-48s-48,21.528-48,48   c0,19.408,11.6,36.12,28.208,43.68C351.088,427.704,336,448.096,336,472v24h112v-24C448,448.096,432.912,427.704,411.792,419.68z    M360,376c0-17.648,14.352-32,32-32s32,14.352,32,32s-14.352,32-32,32S360,393.648,360,376z M432,480h-80v-8   c0-22.056,17.944-40,40-40s40,17.944,40,40V480z"/>
</g>
<g>
</g>
<g>
</g>
<g>
</g>
<g>
</g>
<g>
</g>
<g>
</g>
<g>
</g>
<g>
</g>
<g>
</g>
<g>
</g>
<g>
</g>
<g>
</g>
<g>
</g>
<g>
</g>
<g>
</g>
</svg>
