<?xml version="1.0" encoding="iso-8859-1"?>
<!-- Generator: Adobe Illustrator 19.0.0, SVG Export Plug-In . SVG Version: 6.00 Build 0)  -->
<svg version="1.1" id="Capa_1" xmlns="http://www.w3.org/2000/svg" xmlns:xlink="http://www.w3.org/1999/xlink" x="0px" y="0px"
	 viewBox="0 0 512 512" style="enable-background:new 0 0 512 512;" xml:space="preserve">
<g>
	<g>
		<path d="M241.453,182.738c-25.625-15.838-55.026-22.466-85.02-19.176c-43.719,4.8-82.345,30.851-103.327,69.687
			c-2.625,4.858-0.814,10.926,4.045,13.551c1.512,0.816,3.14,1.204,4.745,1.204c3.556,0,6.998-1.901,8.807-5.249
			c17.859-33.057,50.723-55.229,87.913-59.312c25.514-2.803,50.527,2.838,72.322,16.309c4.697,2.899,10.859,1.449,13.764-3.249
			C247.606,191.805,246.151,185.643,241.453,182.738z"/>
	</g>
</g>
<g>
	<g>
		<path d="M52.346,279.76H10c-5.523,0-10,4.478-10,10c0,5.522,4.477,10,10,10h42.346c5.523,0,10-4.478,10-10
			C62.346,284.238,57.869,279.76,52.346,279.76z"/>
	</g>
</g>
<g>
	<g>
		<path d="M458.894,233.249c-20.981-38.836-59.608-64.887-103.327-69.687c-17.623-1.934-35.046-0.459-51.783,4.383
			c-5.305,1.535-8.362,7.081-6.827,12.386c1.535,5.306,7.082,8.359,12.385,6.827c14.213-4.112,29.031-5.363,44.042-3.715
			c37.189,4.082,70.054,26.255,87.913,59.312c1.809,3.349,5.251,5.249,8.807,5.249c1.605,0,3.233-0.388,4.745-1.204
			C459.708,244.175,461.519,238.108,458.894,233.249z"/>
	</g>
</g>
<g>
	<g>
		<path d="M502,279.76h-42.346c-5.523,0-10,4.477-10,10c0,5.522,4.477,10,10,10H502c5.523,0,10-4.478,10-10
			C512,284.238,507.523,279.76,502,279.76z"/>
	</g>
</g>
<g>
	<g>
		<path d="M502,386.26h-50.239c-23.659,0-46.214,9.219-63.512,25.959c-30.478,29.496-68.78,51.073-105.083,59.198
			c-1.019,0.228-2.055,0.343-3.082,0.343c-6.484,0-12.22-4.604-13.64-10.947c-0.817-3.649-0.164-7.398,1.839-10.557
			s5.116-5.347,8.766-6.163c34.378-7.694,65.806-24.93,90.884-49.842c14.143-14.049,24.555-30.944,30.111-48.859
			c2.945-9.495,4.438-18.709,4.438-27.388c0-17.021-7.009-33.248-19.737-45.693c-13.888-13.58-32.993-21.13-52.357-20.685
			c-15.286,0.342-29.73,5.493-41.773,14.896c-2.985,2.33-6.699,3.341-10.452,2.844c-3.754-0.496-7.077-2.439-9.358-5.471
			c-4.578-6.085-3.245-14.944,2.972-19.749c17.382-13.437,38.215-20.539,60.246-20.539c31.322,0,61.103,15.165,79.663,40.565
			c3.258,4.46,9.514,5.432,13.974,2.175c4.459-3.258,5.433-9.515,2.174-13.974c-22.312-30.536-58.129-48.767-95.812-48.767
			c-26.498,0-51.561,8.546-72.477,24.715c-1.272,0.983-2.45,2.043-3.546,3.161c-1.096-1.118-2.275-2.178-3.546-3.161
			c-20.917-16.169-45.979-24.715-72.477-24.715c-37.682,0-73.5,18.23-95.812,48.767c-3.258,4.459-2.285,10.716,2.174,13.974
			c4.46,3.257,10.716,2.283,13.974-2.175c18.56-25.4,48.341-40.565,79.663-40.565c22.031,0,42.863,7.103,60.246,20.539
			c6.216,4.805,7.549,13.664,2.971,19.749c-2.281,3.031-5.604,4.975-9.358,5.471c-3.754,0.5-7.467-0.513-10.452-2.844
			c-12.042-9.403-26.487-14.555-41.772-14.896c-19.372-0.45-38.47,7.104-52.357,20.685c-12.728,12.445-19.737,28.673-19.737,45.693
			c0,8.679,1.493,17.893,4.438,27.387c5.557,17.916,15.969,34.812,30.111,48.86c25.078,24.912,56.505,42.147,90.884,49.842
			c3.649,0.816,6.762,3.005,8.765,6.163c2.003,3.158,2.656,6.907,1.839,10.556c-1.419,6.344-7.156,10.948-13.64,10.948
			c-1.027,0-2.063-0.115-3.08-0.343c-36.306-8.125-74.608-29.702-105.086-59.198c-17.297-16.74-39.853-25.959-63.512-25.959H10
			c-5.523,0-10,4.478-10,10c0,5.522,4.477,10,10,10h50.239c18.44,0,36.056,7.22,49.603,20.33
			c33.049,31.985,74.829,55.438,114.628,64.345c2.449,0.548,4.954,0.825,7.446,0.825c9.236,0,17.842-3.84,24.084-10.114
			c6.241,6.274,14.848,10.114,24.084,10.114c2.492,0,4.997-0.277,7.448-0.825c39.797-8.907,81.577-32.359,114.626-64.345
			c13.547-13.11,31.164-20.33,49.604-20.33H502c5.523,0,10-4.478,10-10C512,390.738,507.523,386.26,502,386.26z M255.998,433.775
			c-4.523-4.567-10.256-7.762-16.679-9.2c-30.694-6.869-58.757-22.262-81.157-44.514c-11.831-11.753-20.512-25.79-25.104-40.596
			c-2.349-7.573-3.541-14.794-3.541-21.462c0-11.594,4.873-22.742,13.719-31.394c10.064-9.841,23.889-15.292,37.927-14.99
			c10.947,0.245,21.29,3.934,29.912,10.666c7.25,5.66,16.263,8.111,25.383,6.908c7.501-0.992,14.288-4.364,19.541-9.622
			c5.253,5.259,12.041,8.63,19.542,9.622c9.12,1.201,18.133-1.248,25.383-6.908c8.622-6.732,18.965-10.421,29.912-10.666
			c14.043-0.269,27.863,5.149,37.927,14.99c8.847,8.651,13.719,19.8,13.719,31.394c0,6.668-1.191,13.889-3.541,21.463
			c-4.591,14.805-13.272,28.842-25.104,40.595c-22.4,22.252-50.463,37.645-81.157,44.514
			C266.256,426.013,260.523,429.208,255.998,433.775z"/>
	</g>
</g>
<g>
	<g>
		<path d="M255.987,20.24c-5.523,0-10,4.478-10,10v59.493c0,5.523,4.477,10,10,10s10-4.478,10-10V30.24
			C265.987,24.718,261.51,20.24,255.987,20.24z"/>
	</g>
</g>
<g>
	<g>
		<path d="M199.324,105.621l-23.925-23.905c-3.907-3.902-10.239-3.9-14.142,0.006c-3.904,3.907-3.901,10.238,0.005,14.143
			l23.925,23.905c1.953,1.95,4.51,2.926,7.068,2.926c2.561,0,5.121-0.978,7.074-2.932
			C203.233,115.857,203.23,109.526,199.324,105.621z"/>
	</g>
</g>
<g>
	<g>
		<path d="M146.132,52.457c-4.087-3.717-10.416-3.409-14.131,0.678c-3.715,4.086-3.414,10.411,0.673,14.126
			c1.917,1.742,4.324,2.6,6.724,2.6c2.719,0,5.429-1.103,7.402-3.273l0.01-0.011C150.525,62.491,150.219,56.172,146.132,52.457z"/>
	</g>
</g>
<g>
	<g>
		<path d="M379.11,53.371c-3.905-3.904-10.238-3.904-14.142,0.003l-53.807,53.827c-3.905,3.905-3.903,10.237,0.002,14.142
			c1.953,1.953,4.511,2.928,7.07,2.928c2.56,0,5.12-0.977,7.072-2.931l53.807-53.827C383.017,63.608,383.015,57.276,379.11,53.371z"
			/>
	</g>
</g>
<g>
	<g>
		<circle cx="275.85" cy="191.22" r="10"/>
	</g>
</g>
<g>
</g>
<g>
</g>
<g>
</g>
<g>
</g>
<g>
</g>
<g>
</g>
<g>
</g>
<g>
</g>
<g>
</g>
<g>
</g>
<g>
</g>
<g>
</g>
<g>
</g>
<g>
</g>
<g>
</g>
</svg>
