<?xml version="1.0" encoding="iso-8859-1"?>
<!-- Generator: Adobe Illustrator 19.0.0, SVG Export Plug-In . SVG Version: 6.00 Build 0)  -->
<svg version="1.1" id="Capa_1" xmlns="http://www.w3.org/2000/svg" xmlns:xlink="http://www.w3.org/1999/xlink" x="0px" y="0px"
	 viewBox="0 0 512 512" style="enable-background:new 0 0 512 512;" xml:space="preserve">
<g>
	<g>
		<path d="M104.297,448.399c-5.523,0-10,4.478-10,10v43.52c0,5.522,4.477,10,10,10s10-4.478,10-10v-43.52
			C114.297,452.877,109.82,448.399,104.297,448.399z"/>
	</g>
</g>
<g>
	<g>
		<path d="M464.183,259.313h-18.521c5.141-7.438,8.161-16.448,8.161-26.153v-6.567c0-25.431-20.689-46.119-46.12-46.119
			c-25.431,0-46.12,20.688-46.12,46.119v6.567c0,9.105,2.663,17.595,7.236,24.753c-36.954-6.967-65.002-39.468-65.002-78.416v-4.728
			c0-7.917-3.138-15.305-8.835-20.803c-5.696-5.496-13.194-8.36-21.119-8.087c-2.743,0.098-5.378,0.583-7.864,1.39v-50.5
			L369.404,59.32c3.958-1.434,6.595-5.192,6.595-9.402c0-4.21-2.637-7.969-6.595-9.402l-110-39.838
			c-3.065-1.109-6.479-0.657-9.147,1.216C247.589,3.766,246,6.821,246,10.081v33.838v45.837v57.514
			c-2.486-0.807-5.121-1.292-7.864-1.39c-7.925-0.275-15.423,2.59-21.119,8.087c-5.697,5.498-8.835,12.886-8.835,20.803v4.728
			c0,38.948-28.048,71.449-65.002,78.416c4.573-7.158,7.236-15.647,7.236-24.753v-6.567c0-25.431-20.689-46.119-46.12-46.119
			c-25.431,0-46.12,20.688-46.12,46.119v6.567c0,9.706,3.021,18.716,8.161,26.153h-18.52C21.451,259.313,0,280.764,0,307.13v113.775
			c0,17.373,14.134,31.507,31.507,31.507c5.523,0,10-4.478,10-10c0-5.522-4.477-10-10-10c-6.345,0-11.507-5.162-11.507-11.507
			V307.13c0-15.338,12.479-27.816,27.817-27.816h80.549c55.039,0,99.816-44.777,99.816-99.816v-4.728
			c0-2.439,0.967-4.717,2.724-6.411c1.754-1.693,4.083-2.564,6.519-2.49c4.728,0.168,8.575,4.364,8.575,9.354v4.274
			c0,53.203-35.903,99.947-87.311,113.673c-4.376,1.168-7.42,5.132-7.42,9.661v94.071H58.998h-1.18v-84.994c0-5.522-4.477-10-10-10
			s-10,4.478-10,10v94.994c0,5.522,4.477,10,10,10h1.18v85.017c0,5.522,4.477,10,10,10s10-4.478,10-10v-85.017h70.762v85.017
			c0,5.522,4.477,10,10,10s10-4.478,10-10v-85.017h1.51c5.523,0,10-4.478,10-10v-96.615c31.84-10.448,58.021-31.928,74.731-59.441
			v105.507c0,5.522,4.477,10,10,10c5.523,0,10-4.478,10-10V250.846c16.71,27.513,42.891,48.994,74.731,59.441v96.615
			c0,5.522,4.477,10,10,10h1.51v85.017c0,5.522,4.477,10,10,10s10-4.478,10-10v-85.017h70.762v85.017c0,5.522,4.477,10,10,10
			s10-4.478,10-10v-85.017h1.18c5.523,0,10-4.478,10-10v-94.994c0-5.522-4.477-10-10-10s-10,4.478-10,10v84.994h-1.18h-92.271
			v-94.071c0-4.529-3.044-8.493-7.42-9.661C301.903,279.444,266,232.7,266,179.497v-4.274c0-4.99,3.847-9.187,8.575-9.354
			c2.448-0.08,4.765,0.796,6.519,2.49c1.756,1.694,2.724,3.972,2.724,6.411v4.728c0,55.039,44.777,99.816,99.816,99.816h80.549
			c15.338,0,27.817,12.479,27.817,27.816v17.122c0,5.522,4.477,10,10,10s10-4.478,10-10V307.13
			C512,280.764,490.549,259.313,464.183,259.313z M266,43.919V24.338l70.633,25.581L266,75.499V43.919z M130.417,233.16
			c0,14.402-11.717,26.119-26.12,26.119s-26.12-11.717-26.12-26.119v-6.567c0-14.402,11.717-26.119,26.12-26.119
			s26.12,11.717,26.12,26.119V233.16z M433.823,233.16c0,14.402-11.717,26.119-26.12,26.119c-14.403,0-26.12-11.717-26.12-26.119
			v-6.567c0-14.402,11.717-26.119,26.12-26.119c14.403,0,26.12,11.717,26.12,26.119V233.16z"/>
	</g>
</g>
<g>
	<g>
		<path d="M509.07,357.17c-1.86-1.86-4.44-2.93-7.07-2.93s-5.21,1.069-7.07,2.93c-1.86,1.86-2.93,4.439-2.93,7.07
			c0,2.63,1.07,5.21,2.93,7.069c1.86,1.86,4.44,2.931,7.07,2.931s5.21-1.07,7.07-2.931c1.86-1.859,2.93-4.439,2.93-7.069
			C512,361.609,510.93,359.03,509.07,357.17z"/>
	</g>
</g>
<g>
	<g>
		<path d="M502,392.919c-5.523,0-10,4.478-10,10v17.986c0,6.345-5.162,11.507-11.507,11.507c-5.523,0-10,4.478-10,10
			c0,5.522,4.477,10,10,10c17.373,0,31.507-14.134,31.507-31.507v-17.986C512,397.396,507.523,392.919,502,392.919z"/>
	</g>
</g>
<g>
	<g>
		<path d="M407.703,448.399c-5.523,0-10,4.478-10,10v43.52c0,5.522,4.477,10,10,10s10-4.478,10-10v-43.52
			C417.703,452.877,413.226,448.399,407.703,448.399z"/>
	</g>
</g>
<g>
	<g>
		<path d="M263.07,385.531c-1.86-1.861-4.44-2.931-7.07-2.931s-5.21,1.07-7.07,2.931c-1.86,1.869-2.93,4.439-2.93,7.069
			c0,2.641,1.07,5.21,2.93,7.07c1.86,1.87,4.44,2.939,7.07,2.939s5.21-1.069,7.07-2.939c1.86-1.86,2.93-4.43,2.93-7.07
			C266,389.97,264.93,387.4,263.07,385.531z"/>
	</g>
</g>
<g>
</g>
<g>
</g>
<g>
</g>
<g>
</g>
<g>
</g>
<g>
</g>
<g>
</g>
<g>
</g>
<g>
</g>
<g>
</g>
<g>
</g>
<g>
</g>
<g>
</g>
<g>
</g>
<g>
</g>
</svg>
